<svg width="145" height="38" viewBox="0 0 145 38" fill="none" xmlns="http://www.w3.org/2000/svg">
<path d="M37.3424 18.7018C37.3424 28.9967 28.9967 37.3424 18.7018 37.3424C8.40696 37.3424 0.0613175 28.9967 0.0613175 18.7018C0.0613175 8.40696 8.40696 0.0613175 18.7018 0.0613175C28.9967 0.0613175 37.3424 8.40696 37.3424 18.7018Z" fill="#231F20" stroke="url(#paint0_linear_91_27)" stroke-width="0.122635"/>
<path d="M21.0087 9.36587L20.6129 10.0585L24.7689 8.87111L23.9773 7.38684L21.0087 9.36587Z" fill="#F48A20" stroke="black" stroke-width="0.197903"/>
<path d="M16.2775 9.26675L16.6544 9.95941L12.6964 8.77199L13.6859 7.28772L16.2775 9.26675Z" fill="#F48A20" stroke="black" stroke-width="0.197903"/>
<path d="M24.6682 8.96997L20.8091 9.95949L23.5797 10.5532L24.6682 8.96997Z" fill="#F5C522" stroke="black" stroke-width="0.197903"/>
<path d="M22.2953 22.6248L20.712 23.7132L20.9099 19.3594L22.2953 22.6248Z" fill="#0F78DF" stroke="black" stroke-width="0.197903"/>
<path d="M15.2686 22.427L16.9508 23.4166L16.555 19.4585L15.2686 22.427Z" fill="#0F78DF" stroke="black" stroke-width="0.197903"/>
<path d="M25.8556 10.2871L26.2514 13.3977M11.7056 10.2871L11.2108 13.3977" stroke="black" stroke-width="0.197903"/>
<path d="M18.8008 6.19812L20.1152 7.01936L23.7727 7.32733L21.0296 9.32911L20.6099 9.94505L21.944 10.2017L23.5441 10.5097L24.8014 8.91849L25.8301 10.253L24.287 11.8236L26.2301 13.4867L26.573 17.4389L26.4793 17.3362L24.0013 21.2372L22.344 22.6743L20.8581 19.338L20.6867 23.7009L18.6865 25.3947L16.9149 23.4443L16.6292 19.2449L15.2004 22.5204L13.486 21.1345L10.9143 17.3362L11.1429 13.4867L13.0859 11.7252L11.7144 10.253L12.6288 8.76451L16.705 9.94505L16.892 9.9992L16.4577 9.32911L13.8289 7.22468L17.549 7.02994L17.5435 7.01936L18.8008 6.19812Z" fill="url(#paint1_linear_91_27)"/>
<path d="M20.1152 7.01936L18.8008 6.19812L17.5435 7.01936L17.549 7.02994M20.1152 7.01936L18.7436 9.32911M20.1152 7.01936L23.7727 7.32733L21.0296 9.32911L20.6099 9.94505M18.7436 9.32911L18.6865 12.7681M18.7436 9.32911L17.549 7.02994M18.6865 12.7681L16.972 13.7433M18.6865 12.7681V16.5663M18.6865 12.7681L20.4581 13.7433M18.6865 12.7681L20.6099 9.94505M18.6865 12.7681L16.892 9.9992M17.549 7.02994L13.8289 7.22468L16.4577 9.32911L16.892 9.9992M18.6865 16.5663L16.972 16.6177M18.6865 16.5663H20.4581M16.972 16.6177V13.7433M16.972 16.6177L18.7436 18.0548M16.972 13.7433L15.2004 17.4389M16.972 13.7433L16.3434 13.0247L15.3147 12.9221L15.7719 13.538L16.972 13.7433ZM20.4581 13.7433V16.5663M20.4581 13.7433L22.2868 17.3876M20.4581 13.7433L20.9084 13.0247L22.1948 12.9221L21.7 13.538L20.4581 13.7433ZM20.4581 16.5663L18.7436 18.0548M18.7436 18.0548V18.6708M18.7436 18.6708L20.8581 19.338M18.7436 18.6708L16.7434 19.3894M20.8581 19.338L19.6009 20.7752H18.6865M20.8581 19.338L22.0583 17.6996M20.8581 19.338L22.344 22.6743L24.0013 21.2372M20.8581 19.338L20.6867 23.7009L18.6865 25.3947M16.7434 19.3894L17.7721 20.7752H18.6865M16.7434 19.3894L16.6292 19.2449M22.2868 17.3876L23.7156 14.3079M22.2868 17.3876L22.0583 17.6996M15.2004 17.4389L13.7146 14.3079M15.2004 17.4389L15.3596 17.64M23.2584 12.8707L21.944 10.2017M23.2584 12.8707L23.7156 14.3079M23.2584 12.8707L24.287 11.8236M21.944 10.2017L20.6099 9.94505M21.944 10.2017L23.5441 10.5097L24.8014 8.91849L25.8301 10.253L24.287 11.8236M23.7156 14.3079L26.2301 13.4867M23.7156 14.3079L26.4793 17.3362M26.2301 13.4867L24.287 11.8236M26.2301 13.4867L26.573 17.4389L26.4793 17.3362M24.0013 21.2372L22.0583 17.6996M24.0013 21.2372L26.4793 17.3362M16.892 9.9992L16.705 9.94505M12.6288 8.76451L11.7144 10.253L13.0859 11.7252M12.6288 8.76451L16.705 9.94505M12.6288 8.76451L13.886 10.5097L15.5433 10.2017M14.0575 12.7681L15.5433 10.2017M14.0575 12.7681L13.7146 14.3079M14.0575 12.7681L13.0859 11.7252M15.5433 10.2017L16.705 9.94505M13.7146 14.3079L11.1429 13.4867M13.7146 14.3079L10.9143 17.3362M13.0859 11.7252L11.1429 13.4867M11.1429 13.4867L10.9143 17.3362M10.9143 17.3362L13.486 21.1345M13.486 21.1345L15.3596 17.64M13.486 21.1345L15.2004 22.5204L16.6292 19.2449M15.3596 17.64L16.6292 19.2449M16.6292 19.2449L16.9149 23.4443L18.6865 25.3947M18.6865 25.3947V20.7752" stroke="black" stroke-width="0.197903"/>
<path d="M16.2571 13.0264L15.3666 12.9275L15.7624 13.5212L16.8508 13.6202L16.2571 13.0264Z" fill="black" stroke="black" stroke-width="0.197903"/>
<path d="M21.0073 13.1256L21.9968 13.0266L21.601 13.5609L20.6114 13.7193L21.0073 13.1256Z" fill="black" stroke="black" stroke-width="0.197903"/>
<path d="M24.7265 8.96899L20.6118 9.99555" stroke="black" stroke-width="0.197903"/>
<path d="M12.5978 8.77574L13.6863 7.17603M24.8678 8.95349L23.8783 7.28689" stroke="black" stroke-width="0.197903"/>
<path d="M22.294 22.7285L20.7108 23.7061M15.2684 22.5508L16.9506 23.4395" stroke="black" stroke-width="0.197903"/>
<path d="M26.2521 13.4224L25.8563 10.3549L24.3721 11.8391L26.2521 13.4224Z" fill="#CF5065" stroke="black" stroke-width="0.0593709"/>
<path d="M11.2122 13.4224L11.6861 10.3549L12.9933 11.7402L11.2122 13.4224Z" fill="#CF5065" stroke="black" stroke-width="0.0593709"/>
<path d="M18.7315 18.6664L16.9504 19.359L16.7525 19.458L17.742 20.7444H19.6221L20.8095 19.359L18.7315 18.6664Z" fill="#F6C721" stroke="black" stroke-width="0.0593709"/>
<path d="M22.1955 17.3802L20.5134 13.9169V16.5886L18.7322 18.0728V18.5676L20.8102 19.2603L22.1955 17.3802Z" fill="#F6C721" stroke="black" stroke-width="0.0593709"/>
<path d="M15.2688 17.3816L16.9029 14.1162V16.59L18.6331 18.0743V18.569L16.753 19.2617L15.2688 17.3816Z" fill="#F6C721" stroke="black" stroke-width="0.0593709"/>
<path d="M11.8526 28.5838H11.4832C11.4764 28.536 11.4626 28.4936 11.4418 28.4565C11.421 28.4188 11.3943 28.3868 11.3617 28.3603C11.3291 28.3339 11.2915 28.3137 11.2487 28.2996C11.2066 28.2856 11.1607 28.2785 11.1113 28.2785C11.0219 28.2785 10.944 28.3007 10.8777 28.3452C10.8113 28.389 10.7599 28.4531 10.7233 28.5374C10.6868 28.6212 10.6685 28.723 10.6685 28.8427C10.6685 28.9658 10.6868 29.0693 10.7233 29.1531C10.7604 29.2368 10.8122 29.3001 10.8785 29.3428C10.9448 29.3855 11.0216 29.4069 11.1087 29.4069C11.1576 29.4069 11.2029 29.4004 11.2445 29.3875C11.2867 29.3746 11.3241 29.3558 11.3567 29.331C11.3893 29.3057 11.4163 29.2751 11.4376 29.2391C11.4596 29.2031 11.4747 29.1621 11.4832 29.116L11.8526 29.1176C11.843 29.1969 11.8191 29.2734 11.7809 29.347C11.7432 29.4201 11.6923 29.4856 11.6282 29.5435C11.5647 29.6009 11.4888 29.6464 11.4005 29.6802C11.3128 29.7133 11.2136 29.7299 11.1028 29.7299C10.9488 29.7299 10.811 29.6951 10.6896 29.6253C10.5687 29.5556 10.4731 29.4547 10.4029 29.3226C10.3331 29.1905 10.2983 29.0305 10.2983 28.8427C10.2983 28.6544 10.3337 28.4941 10.4045 28.362C10.4754 28.2299 10.5715 28.1293 10.693 28.0601C10.8144 27.9904 10.951 27.9555 11.1028 27.9555C11.2029 27.9555 11.2957 27.9696 11.3811 27.9977C11.4671 28.0258 11.5433 28.0669 11.6097 28.1208C11.676 28.1742 11.73 28.2397 11.7716 28.3173C11.8138 28.3949 11.8407 28.4837 11.8526 28.5838ZM13.8916 28.8427C13.8916 29.0311 13.8559 29.1913 13.7844 29.3234C13.7136 29.4555 13.6169 29.5565 13.4943 29.6262C13.3723 29.6953 13.2352 29.7299 13.0828 29.7299C12.9293 29.7299 12.7916 29.6951 12.6696 29.6253C12.5476 29.5556 12.4511 29.4547 12.3803 29.3226C12.3095 29.1905 12.274 29.0305 12.274 28.8427C12.274 28.6544 12.3095 28.4941 12.3803 28.362C12.4511 28.2299 12.5476 28.1293 12.6696 28.0601C12.7916 27.9904 12.9293 27.9555 13.0828 27.9555C13.2352 27.9555 13.3723 27.9904 13.4943 28.0601C13.6169 28.1293 13.7136 28.2299 13.7844 28.362C13.8559 28.4941 13.8916 28.6544 13.8916 28.8427ZM13.5213 28.8427C13.5213 28.7207 13.5031 28.6178 13.4665 28.5341C13.4305 28.4503 13.3796 28.3868 13.3139 28.3435C13.2481 28.3002 13.1711 28.2785 13.0828 28.2785C12.9945 28.2785 12.9175 28.3002 12.8517 28.3435C12.7859 28.3868 12.7348 28.4503 12.6982 28.5341C12.6622 28.6178 12.6443 28.7207 12.6443 28.8427C12.6443 28.9647 12.6622 29.0676 12.6982 29.1514C12.7348 29.2352 12.7859 29.2987 12.8517 29.342C12.9175 29.3853 12.9945 29.4069 13.0828 29.4069C13.1711 29.4069 13.2481 29.3853 13.3139 29.342C13.3796 29.2987 13.4305 29.2352 13.4665 29.1514C13.5031 29.0676 13.5213 28.9647 13.5213 28.8427ZM14.9643 29.7063H14.352V27.9791H14.9694C15.1431 27.9791 15.2926 28.0137 15.418 28.0829C15.5434 28.1515 15.6398 28.2501 15.7073 28.3789C15.7753 28.5076 15.8093 28.6617 15.8093 28.841C15.8093 29.0209 15.7753 29.1756 15.7073 29.3049C15.6398 29.4342 15.5428 29.5334 15.4163 29.6026C15.2904 29.6717 15.1397 29.7063 14.9643 29.7063ZM14.7172 29.3934H14.9491C15.0571 29.3934 15.1479 29.3743 15.2215 29.3361C15.2957 29.2973 15.3514 29.2374 15.3885 29.1564C15.4262 29.0749 15.445 28.9698 15.445 28.841C15.445 28.7134 15.4262 28.6091 15.3885 28.5282C15.3514 28.4472 15.296 28.3876 15.2224 28.3494C15.1487 28.3111 15.0579 28.292 14.95 28.292H14.7172V29.3934ZM16.2698 29.7063V27.9791H17.4336V28.2802H16.635V28.6918H17.3737V28.9928H16.635V29.4052H17.437V29.7063H16.2698ZM19.5905 28.4759C19.5838 28.4078 19.5548 28.355 19.5036 28.3173C19.4525 28.2797 19.383 28.2608 19.2953 28.2608C19.2357 28.2608 19.1854 28.2693 19.1444 28.2861C19.1033 28.3024 19.0718 28.3252 19.0499 28.3544C19.0286 28.3837 19.0179 28.4168 19.0179 28.4539C19.0168 28.4849 19.0232 28.5119 19.0373 28.5349C19.0519 28.558 19.0718 28.5779 19.0971 28.5948C19.1224 28.6111 19.1517 28.6254 19.1849 28.6378C19.218 28.6496 19.2534 28.6597 19.2911 28.6682L19.4463 28.7053C19.5216 28.7221 19.5908 28.7446 19.6538 28.7727C19.7167 28.8008 19.7713 28.8354 19.8174 28.8765C19.8635 28.9175 19.8992 28.9658 19.9245 29.0215C19.9503 29.0772 19.9635 29.141 19.9641 29.2129C19.9635 29.3186 19.9365 29.4103 19.8831 29.4879C19.8303 29.5649 19.7538 29.6248 19.6538 29.6675C19.5542 29.7097 19.4342 29.7308 19.2936 29.7308C19.1542 29.7308 19.0328 29.7094 18.9293 29.6667C18.8264 29.6239 18.746 29.5607 18.6881 29.4769C18.6308 29.3926 18.6007 29.2883 18.5979 29.164H18.9513C18.9552 29.2219 18.9718 29.2703 19.001 29.3091C19.0308 29.3473 19.0704 29.3763 19.1199 29.396C19.17 29.4151 19.2265 29.4246 19.2894 29.4246C19.3513 29.4246 19.405 29.4156 19.4505 29.3976C19.4966 29.3796 19.5323 29.3546 19.5576 29.3226C19.5829 29.2905 19.5956 29.2537 19.5956 29.2121C19.5956 29.1733 19.584 29.1407 19.561 29.1143C19.5385 29.0879 19.5053 29.0654 19.4615 29.0468C19.4182 29.0283 19.365 29.0114 19.3021 28.9962L19.114 28.949C18.9684 28.9136 18.8534 28.8582 18.7691 28.7828C18.6848 28.7075 18.6429 28.606 18.6434 28.4784C18.6429 28.3738 18.6707 28.2825 18.7269 28.2043C18.7837 28.1262 18.8616 28.0652 18.9605 28.0213C19.0595 27.9775 19.1719 27.9555 19.2979 27.9555C19.4261 27.9555 19.5379 27.9775 19.6335 28.0213C19.7297 28.0652 19.8044 28.1262 19.8578 28.2043C19.9112 28.2825 19.9388 28.373 19.9405 28.4759H19.5905ZM20.3339 28.2802V27.9791H21.7524V28.2802H21.2236V29.7063H20.8627V28.2802H20.3339ZM22.2627 29.7063H21.8714L22.4676 27.9791H22.9382L23.5336 29.7063H23.1423L22.7096 28.3738H22.6961L22.2627 29.7063ZM22.2382 29.0274H23.1625V29.3125H22.2382V29.0274ZM25.3742 28.5838H25.0048C24.9981 28.536 24.9843 28.4936 24.9635 28.4565C24.9427 28.4188 24.916 28.3868 24.8834 28.3603C24.8507 28.3339 24.8131 28.3137 24.7704 28.2996C24.7282 28.2856 24.6824 28.2785 24.6329 28.2785C24.5435 28.2785 24.4656 28.3007 24.3993 28.3452C24.3329 28.389 24.2815 28.4531 24.245 28.5374C24.2084 28.6212 24.1901 28.723 24.1901 28.8427C24.1901 28.9658 24.2084 29.0693 24.245 29.1531C24.2821 29.2368 24.3338 29.3001 24.4001 29.3428C24.4665 29.3855 24.5432 29.4069 24.6304 29.4069C24.6793 29.4069 24.7245 29.4004 24.7661 29.3875C24.8083 29.3746 24.8457 29.3558 24.8783 29.331C24.9109 29.3057 24.9379 29.2751 24.9593 29.2391C24.9812 29.2031 24.9964 29.1621 25.0048 29.116L25.3742 29.1176C25.3646 29.1969 25.3407 29.2734 25.3025 29.347C25.2648 29.4201 25.2139 29.4856 25.1499 29.5435C25.0863 29.6009 25.0104 29.6464 24.9222 29.6802C24.8344 29.7133 24.7352 29.7299 24.6245 29.7299C24.4704 29.7299 24.3327 29.6951 24.2112 29.6253C24.0903 29.5556 23.9948 29.4547 23.9245 29.3226C23.8548 29.1905 23.8199 29.0305 23.8199 28.8427C23.8199 28.6544 23.8553 28.4941 23.9262 28.362C23.997 28.2299 24.0932 28.1293 24.2146 28.0601C24.336 27.9904 24.4727 27.9555 24.6245 27.9555C24.7245 27.9555 24.8173 27.9696 24.9028 27.9977C24.9888 28.0258 25.065 28.0669 25.1313 28.1208C25.1976 28.1742 25.2516 28.2397 25.2932 28.3173C25.3354 28.3949 25.3624 28.4837 25.3742 28.5838ZM25.826 29.7063V27.9791H26.1912V28.7407H26.214L26.8355 27.9791H27.2732L26.6323 28.7525L27.2808 29.7063H26.8439L26.3708 28.9962L26.1912 29.2155V29.7063H25.826Z" fill="white"/>
<path d="M11.6497 31.3064H11.6006C11.597 31.2881 11.5903 31.2712 11.5808 31.2557C11.5713 31.24 11.5595 31.2264 11.5452 31.2147C11.5309 31.203 11.5147 31.194 11.4966 31.1875C11.4785 31.1811 11.4589 31.1779 11.4378 31.1779C11.404 31.1779 11.3732 31.1867 11.3453 31.2042C11.3176 31.2218 11.2954 31.2477 11.2787 31.2818C11.2621 31.3158 11.2539 31.3575 11.2539 31.4067C11.2539 31.4564 11.2621 31.4982 11.2787 31.5322C11.2954 31.5661 11.3176 31.5919 11.3453 31.6095C11.3732 31.6269 11.404 31.6356 11.4378 31.6356C11.4589 31.6356 11.4785 31.6324 11.4966 31.626C11.5147 31.6195 11.5309 31.6106 11.5452 31.5991C11.5595 31.5874 11.5713 31.5737 11.5808 31.558C11.5903 31.5424 11.597 31.5254 11.6006 31.5071H11.6497C11.6454 31.5316 11.6372 31.5546 11.6252 31.5758C11.6133 31.5969 11.5982 31.6154 11.5797 31.6312C11.5614 31.6471 11.5403 31.6594 11.5165 31.6683C11.4926 31.6772 11.4664 31.6816 11.4378 31.6816C11.3929 31.6816 11.353 31.6704 11.3182 31.6479C11.2833 31.6253 11.256 31.5934 11.2361 31.5523C11.2164 31.5112 11.2066 31.4627 11.2066 31.4067C11.2066 31.3508 11.2164 31.3023 11.2361 31.2612C11.256 31.2201 11.2833 31.1883 11.3182 31.1658C11.353 31.1432 11.3929 31.1319 11.4378 31.1319C11.4664 31.1319 11.4926 31.1363 11.5165 31.1452C11.5403 31.1539 11.5614 31.1663 11.5797 31.1823C11.5982 31.1981 11.6133 31.2166 11.6252 31.2377C11.6372 31.2588 11.6454 31.2817 11.6497 31.3064ZM12.3504 31.4067C12.3504 31.4625 12.3405 31.511 12.3206 31.5523C12.3007 31.5934 12.2734 31.6253 12.2386 31.6479C12.2039 31.6704 12.164 31.6816 12.1189 31.6816C12.0738 31.6816 12.0338 31.6704 11.9989 31.6479C11.9643 31.6253 11.937 31.5934 11.9172 31.5523C11.8975 31.511 11.8876 31.4625 11.8876 31.4067C11.8876 31.351 11.8975 31.3026 11.9172 31.2615C11.937 31.2202 11.9644 31.1883 11.9992 31.1658C12.034 31.1432 12.0739 31.1319 12.1189 31.1319C12.164 31.1319 12.2039 31.1432 12.2386 31.1658C12.2734 31.1883 12.3007 31.2202 12.3206 31.2615C12.3405 31.3026 12.3504 31.351 12.3504 31.4067ZM12.3028 31.4067C12.3028 31.3588 12.2948 31.3178 12.2788 31.2837C12.2628 31.2494 12.2409 31.2231 12.2132 31.205C12.1855 31.1869 12.1541 31.1779 12.1189 31.1779C12.0839 31.1779 12.0525 31.1869 12.0248 31.205C11.9971 31.2231 11.9752 31.2493 11.959 31.2834C11.9429 31.3176 11.9349 31.3587 11.9349 31.4067C11.9349 31.4547 11.9429 31.4957 11.959 31.5298C11.975 31.564 11.9969 31.5902 12.0246 31.6085C12.0523 31.6266 12.0837 31.6356 12.1189 31.6356C12.1541 31.6356 12.1855 31.6266 12.2132 31.6085C12.2411 31.5904 12.263 31.5642 12.2791 31.5301C12.2951 31.4958 12.303 31.4547 12.3028 31.4067ZM13.0325 31.1392V31.6743H12.9849L12.6688 31.2262H12.6646V31.6743H12.6157V31.1392H12.663L12.9802 31.5878H12.9844V31.1392H13.0325ZM13.2895 31.1831V31.1392H13.6776V31.1831H13.508V31.6743H13.4591V31.1831H13.2895ZM13.9347 31.6743V31.1392H14.2451V31.1831H13.9836V31.3845H14.2287V31.4284H13.9836V31.6304H14.2504V31.6743H13.9347ZM14.8754 31.1392H14.9243V31.4935C14.9243 31.5299 14.9158 31.5625 14.8987 31.5912C14.8816 31.6198 14.8578 31.6424 14.8274 31.6589C14.797 31.6753 14.7618 31.6835 14.7215 31.6835C14.6815 31.6835 14.6462 31.6752 14.6157 31.6586C14.5852 31.6421 14.5614 31.6195 14.5444 31.591C14.5273 31.5624 14.5188 31.5299 14.5188 31.4935V31.1392H14.5676V31.4901C14.5676 31.5185 14.574 31.5438 14.5867 31.5661C14.5994 31.5883 14.6173 31.6057 14.6403 31.6184C14.6634 31.6311 14.6905 31.6375 14.7215 31.6375C14.7525 31.6375 14.7796 31.6311 14.8028 31.6184C14.826 31.6057 14.8438 31.5883 14.8564 31.5661C14.8691 31.5438 14.8754 31.5185 14.8754 31.4901V31.1392ZM14.6998 31.0835L14.7667 30.9649H14.8219L14.7417 31.0835H14.6998ZM15.3703 31.6743H15.2135V31.1392H15.3797C15.4307 31.1392 15.4743 31.1498 15.5106 31.1711C15.547 31.1923 15.5748 31.2228 15.5942 31.2625C15.6135 31.3022 15.6232 31.3499 15.6232 31.4054C15.6232 31.4615 15.6133 31.5097 15.5934 31.5499C15.5737 31.59 15.545 31.6208 15.5072 31.6422C15.4695 31.6636 15.4239 31.6743 15.3703 31.6743ZM15.2623 31.6304H15.3674C15.4134 31.6304 15.4519 31.6214 15.4829 31.6032C15.5139 31.5851 15.5371 31.5593 15.5526 31.5256C15.5681 31.492 15.5759 31.452 15.5759 31.4054C15.5757 31.3593 15.5681 31.3196 15.5529 31.2863C15.5379 31.253 15.5156 31.2275 15.486 31.2097C15.4566 31.192 15.4202 31.1831 15.3768 31.1831H15.2623V31.6304ZM16.3275 31.4067C16.3275 31.4625 16.3176 31.511 16.2977 31.5523C16.2779 31.5934 16.2505 31.6253 16.2157 31.6479C16.181 31.6704 16.1411 31.6816 16.096 31.6816C16.0509 31.6816 16.0109 31.6704 15.9761 31.6479C15.9414 31.6253 15.9141 31.5934 15.8943 31.5523C15.8746 31.511 15.8647 31.4625 15.8647 31.4067C15.8647 31.351 15.8746 31.3026 15.8943 31.2615C15.9141 31.2202 15.9415 31.1883 15.9763 31.1658C16.0112 31.1432 16.051 31.1319 16.096 31.1319C16.1411 31.1319 16.181 31.1432 16.2157 31.1658C16.2505 31.1883 16.2779 31.2202 16.2977 31.2615C16.3176 31.3026 16.3275 31.351 16.3275 31.4067ZM16.2799 31.4067C16.2799 31.3588 16.2719 31.3178 16.2559 31.2837C16.2399 31.2494 16.218 31.2231 16.1903 31.205C16.1626 31.1869 16.1312 31.1779 16.096 31.1779C16.061 31.1779 16.0296 31.1869 16.0019 31.205C15.9742 31.2231 15.9523 31.2493 15.9361 31.2834C15.9201 31.3176 15.912 31.3587 15.912 31.4067C15.912 31.4547 15.9201 31.4957 15.9361 31.5298C15.9521 31.564 15.974 31.5902 16.0017 31.6085C16.0294 31.6266 16.0608 31.6356 16.096 31.6356C16.1312 31.6356 16.1626 31.6266 16.1903 31.6085C16.2182 31.5904 16.2401 31.5642 16.2562 31.5301C16.2722 31.4958 16.2801 31.4547 16.2799 31.4067ZM16.8834 31.273C16.8804 31.2432 16.8673 31.2195 16.8439 31.2019C16.8206 31.1843 16.7912 31.1755 16.7559 31.1755C16.731 31.1755 16.709 31.1798 16.69 31.1883C16.6712 31.1968 16.6564 31.2087 16.6456 31.2238C16.635 31.2388 16.6297 31.2559 16.6297 31.2751C16.6297 31.2892 16.6327 31.3015 16.6388 31.3122C16.6449 31.3228 16.6531 31.3319 16.6634 31.3396C16.6738 31.3471 16.6853 31.3535 16.6979 31.3589C16.7106 31.3643 16.7234 31.3689 16.7363 31.3725L16.7927 31.3887C16.8098 31.3934 16.8269 31.3994 16.8439 31.4067C16.861 31.4141 16.8766 31.4233 16.8907 31.4344C16.905 31.4454 16.9164 31.4589 16.9249 31.4749C16.9336 31.4908 16.938 31.5099 16.938 31.5322C16.938 31.5607 16.9306 31.5864 16.9158 31.6093C16.901 31.6321 16.8797 31.6502 16.852 31.6636C16.8243 31.6768 16.7912 31.6835 16.7525 31.6835C16.7161 31.6835 16.6845 31.6775 16.6576 31.6654C16.6308 31.6532 16.6097 31.6364 16.5944 31.615C16.5791 31.5936 16.5704 31.5688 16.5685 31.5405H16.6187C16.6204 31.5616 16.6274 31.5795 16.6396 31.5941C16.6518 31.6087 16.6677 31.6199 16.6872 31.6275C16.7067 31.635 16.7284 31.6388 16.7525 31.6388C16.7791 31.6388 16.8028 31.6343 16.8236 31.6255C16.8445 31.6164 16.8608 31.6039 16.8727 31.5878C16.8847 31.5716 16.8907 31.5528 16.8907 31.5314C16.8907 31.5133 16.886 31.4981 16.8766 31.4859C16.8672 31.4736 16.854 31.4632 16.8371 31.4548C16.8204 31.4465 16.801 31.4391 16.7789 31.4326L16.7149 31.4138C16.6729 31.4013 16.6403 31.3839 16.6171 31.3618C16.594 31.3397 16.5824 31.3115 16.5824 31.2771C16.5824 31.2484 16.59 31.2231 16.6054 31.2014C16.6209 31.1794 16.6418 31.1624 16.6681 31.1502C16.6946 31.1378 16.7243 31.1316 16.7572 31.1316C16.7905 31.1316 16.8199 31.1377 16.8455 31.1499C16.8711 31.1621 16.8914 31.1789 16.9064 31.2003C16.9215 31.2216 16.9296 31.2458 16.9307 31.273H16.8834ZM17.7136 31.6743H17.5569V31.1392H17.723C17.7741 31.1392 17.8177 31.1498 17.854 31.1711C17.8904 31.1923 17.9182 31.2228 17.9376 31.2625C17.9569 31.3022 17.9666 31.3499 17.9666 31.4054C17.9666 31.4615 17.9566 31.5097 17.9368 31.5499C17.9171 31.59 17.8884 31.6208 17.8506 31.6422C17.8129 31.6636 17.7673 31.6743 17.7136 31.6743ZM17.6057 31.6304H17.7108C17.7567 31.6304 17.7952 31.6214 17.8263 31.6032C17.8573 31.5851 17.8805 31.5593 17.896 31.5256C17.9115 31.492 17.9193 31.452 17.9193 31.4054C17.9191 31.3593 17.9114 31.3196 17.8963 31.2863C17.8813 31.253 17.859 31.2275 17.8294 31.2097C17.8 31.192 17.7635 31.1831 17.7202 31.1831H17.6057V31.6304ZM18.2322 31.6743V31.1392H18.5426V31.1831H18.281V31.3845H18.5261V31.4284H18.281V31.6304H18.5478V31.6743H18.2322ZM19.1703 31.6743V31.1392H19.343C19.381 31.1392 19.4127 31.1465 19.4382 31.1611C19.4638 31.1756 19.483 31.1953 19.4959 31.2202C19.509 31.2451 19.5155 31.2731 19.5155 31.3043C19.5155 31.3355 19.509 31.3636 19.4962 31.3887C19.4833 31.4136 19.4641 31.4334 19.4387 31.448C19.4132 31.4625 19.3816 31.4697 19.3438 31.4697H19.2079V31.4258H19.3425C19.3706 31.4258 19.3938 31.4206 19.4123 31.4101C19.4307 31.3995 19.4445 31.3851 19.4536 31.3668C19.4628 31.3485 19.4674 31.3277 19.4674 31.3043C19.4674 31.281 19.4628 31.2602 19.4536 31.2419C19.4445 31.2236 19.4307 31.2092 19.412 31.1988C19.3936 31.1883 19.3701 31.1831 19.3417 31.1831H19.2192V31.6743H19.1703ZM19.7774 31.6743V31.1392H19.9501C19.9881 31.1392 20.0198 31.1461 20.0452 31.1598C20.0708 31.1734 20.09 31.1923 20.1029 31.2165C20.116 31.2406 20.1225 31.2682 20.1225 31.2994C20.1225 31.3305 20.116 31.3581 20.1029 31.3819C20.09 31.4058 20.0709 31.4244 20.0455 31.4378C20.02 31.4513 19.9885 31.458 19.9509 31.458H19.8038V31.4133H19.9496C19.9774 31.4133 20.0006 31.4087 20.0191 31.3994C20.0377 31.3902 20.0516 31.377 20.0606 31.36C20.0698 31.3429 20.0745 31.3227 20.0745 31.2994C20.0745 31.276 20.0698 31.2556 20.0606 31.2382C20.0514 31.2206 20.0374 31.207 20.0188 31.1975C20.0003 31.1879 19.977 31.1831 19.9488 31.1831H19.8262V31.6743H19.7774ZM20.0133 31.4329L20.145 31.6743H20.0886L19.9582 31.4329H20.0133ZM20.8274 31.4067C20.8274 31.4625 20.8175 31.511 20.7976 31.5523C20.7778 31.5934 20.7504 31.6253 20.7156 31.6479C20.6809 31.6704 20.641 31.6816 20.5959 31.6816C20.5508 31.6816 20.5108 31.6704 20.476 31.6479C20.4413 31.6253 20.4141 31.5934 20.3942 31.5523C20.3745 31.511 20.3647 31.4625 20.3647 31.4067C20.3647 31.351 20.3745 31.3026 20.3942 31.2615C20.4141 31.2202 20.4414 31.1883 20.4763 31.1658C20.5111 31.1432 20.551 31.1319 20.5959 31.1319C20.641 31.1319 20.6809 31.1432 20.7156 31.1658C20.7504 31.1883 20.7778 31.2202 20.7976 31.2615C20.8175 31.3026 20.8274 31.351 20.8274 31.4067ZM20.7799 31.4067C20.7799 31.3588 20.7719 31.3178 20.7558 31.2837C20.7398 31.2494 20.718 31.2231 20.6903 31.205C20.6626 31.1869 20.6311 31.1779 20.5959 31.1779C20.5609 31.1779 20.5296 31.1869 20.5019 31.205C20.4742 31.2231 20.4522 31.2493 20.436 31.2834C20.42 31.3176 20.412 31.3587 20.412 31.4067C20.412 31.4547 20.42 31.4957 20.436 31.5298C20.452 31.564 20.4739 31.5902 20.5016 31.6085C20.5293 31.6266 20.5607 31.6356 20.5959 31.6356C20.6311 31.6356 20.6626 31.6266 20.6903 31.6085C20.7181 31.5904 20.7401 31.5642 20.7561 31.5301C20.7721 31.4958 20.7801 31.4547 20.7799 31.4067ZM21.463 31.3064C21.4581 31.2886 21.451 31.272 21.4416 31.2565C21.4322 31.2408 21.4205 31.2272 21.4066 31.2155C21.3928 31.2036 21.3769 31.1944 21.3588 31.1878C21.3408 31.1812 21.3208 31.1779 21.2987 31.1779C21.2638 31.1779 21.2327 31.1869 21.2051 31.205C21.1776 31.2231 21.1558 31.2493 21.1398 31.2834C21.124 31.3176 21.116 31.3587 21.116 31.4067C21.116 31.4547 21.124 31.4957 21.1401 31.5298C21.1561 31.564 21.178 31.5902 21.2059 31.6085C21.234 31.6266 21.266 31.6356 21.3021 31.6356C21.335 31.6356 21.3641 31.6283 21.3893 31.6137C21.4146 31.5991 21.4343 31.5782 21.4484 31.551C21.4627 31.5238 21.4696 31.4915 21.4693 31.454L21.485 31.459H21.3136V31.4151H21.5169V31.459C21.5169 31.5046 21.5076 31.5441 21.4892 31.5774C21.4707 31.6106 21.4453 31.6363 21.4131 31.6545C21.3809 31.6726 21.3439 31.6816 21.3021 31.6816C21.2554 31.6816 21.2145 31.6704 21.1795 31.6479C21.1445 31.6253 21.1172 31.5934 21.0977 31.5523C21.0784 31.511 21.0687 31.4625 21.0687 31.4067C21.0687 31.3648 21.0743 31.3269 21.0855 31.2931C21.0966 31.2593 21.1124 31.2304 21.1327 31.2063C21.1533 31.1823 21.1776 31.1639 21.2056 31.1512C21.2337 31.1383 21.2647 31.1319 21.2987 31.1319C21.3279 31.1319 21.3547 31.1365 21.3789 31.1457C21.4033 31.1549 21.4247 31.1677 21.4432 31.1839C21.4618 31.1999 21.477 31.2184 21.4889 31.2395C21.5009 31.2604 21.509 31.2827 21.5132 31.3064H21.463ZM21.7853 31.6743V31.1392H21.958C21.996 31.1392 22.0277 31.1461 22.0531 31.1598C22.0788 31.1734 22.098 31.1923 22.1109 31.2165C22.124 31.2406 22.1305 31.2682 22.1305 31.2994C22.1305 31.3305 22.124 31.3581 22.1109 31.3819C22.098 31.4058 22.0788 31.4244 22.0534 31.4378C22.028 31.4513 21.9964 31.458 21.9588 31.458H21.8117V31.4133H21.9575C21.9854 31.4133 22.0086 31.4087 22.027 31.3994C22.0457 31.3902 22.0595 31.377 22.0686 31.36C22.0778 31.3429 22.0824 31.3227 22.0824 31.2994C22.0824 31.276 22.0778 31.2556 22.0686 31.2382C22.0593 31.2206 22.0454 31.207 22.0268 31.1975C22.0083 31.1879 21.985 31.1831 21.9567 31.1831H21.8342V31.6743H21.7853ZM22.0213 31.4329L22.153 31.6743H22.0965L21.9661 31.4329H22.0213ZM22.3975 31.6743H22.3462L22.5409 31.1392H22.5932L22.7878 31.6743H22.7366L22.5689 31.2027H22.5652L22.3975 31.6743ZM22.4343 31.4692H22.6998V31.5131H22.4343V31.4692ZM23.0267 31.1392H23.0832L23.2773 31.6053H23.282L23.4761 31.1392H23.5326V31.6743H23.4866V31.2424H23.4824L23.3019 31.6743H23.2574L23.0769 31.2424H23.0727V31.6743H23.0267V31.1392ZM23.8228 31.6743H23.7716L23.9663 31.1392H24.0185L24.2132 31.6743H24.162L23.9942 31.2027H23.9906L23.8228 31.6743ZM23.8596 31.4692H24.1251V31.5131H23.8596V31.4692ZM24.846 31.3064H24.7969C24.7932 31.2881 24.7866 31.2712 24.777 31.2557C24.7676 31.24 24.7558 31.2264 24.7415 31.2147C24.7272 31.203 24.711 31.194 24.6929 31.1875C24.6748 31.1811 24.6552 31.1779 24.6341 31.1779C24.6003 31.1779 24.5695 31.1867 24.5416 31.2042C24.5139 31.2218 24.4917 31.2477 24.475 31.2818C24.4584 31.3158 24.4502 31.3575 24.4502 31.4067C24.4502 31.4564 24.4584 31.4982 24.475 31.5322C24.4917 31.5661 24.5139 31.5919 24.5416 31.6095C24.5695 31.6269 24.6003 31.6356 24.6341 31.6356C24.6552 31.6356 24.6748 31.6324 24.6929 31.626C24.711 31.6195 24.7272 31.6106 24.7415 31.5991C24.7558 31.5874 24.7676 31.5737 24.777 31.558C24.7866 31.5424 24.7932 31.5254 24.7969 31.5071H24.846C24.8417 31.5316 24.8335 31.5546 24.8215 31.5758C24.8096 31.5969 24.7945 31.6154 24.776 31.6312C24.7577 31.6471 24.7366 31.6594 24.7128 31.6683C24.6889 31.6772 24.6627 31.6816 24.6341 31.6816C24.5892 31.6816 24.5493 31.6704 24.5144 31.6479C24.4796 31.6253 24.4523 31.5934 24.4324 31.5523C24.4127 31.5112 24.4029 31.4627 24.4029 31.4067C24.4029 31.3508 24.4127 31.3023 24.4324 31.2612C24.4523 31.2201 24.4796 31.1883 24.5144 31.1658C24.5493 31.1432 24.5892 31.1319 24.6341 31.1319C24.6627 31.1319 24.6889 31.1363 24.7128 31.1452C24.7366 31.1539 24.7577 31.1663 24.776 31.1823C24.7945 31.1981 24.8096 31.2166 24.8215 31.2377C24.8335 31.2588 24.8417 31.2817 24.846 31.3064ZM24.6132 31.6751H24.6529L24.649 31.696C24.664 31.6983 24.6767 31.7043 24.6872 31.714C24.6978 31.724 24.7032 31.7384 24.7034 31.7574C24.7032 31.7785 24.6949 31.7952 24.6785 31.8076C24.6623 31.8199 24.6384 31.8263 24.6067 31.8267L24.6051 31.794C24.6224 31.7936 24.6359 31.7907 24.6459 31.7851C24.6558 31.7797 24.6608 31.7709 24.6608 31.7587C24.6608 31.7457 24.6562 31.7364 24.6469 31.731C24.6379 31.7256 24.6235 31.7224 24.6038 31.7213L24.6132 31.6751ZM25.1087 31.6743H25.0575L25.2522 31.1392H25.3045L25.4991 31.6743H25.4479L25.2802 31.2027H25.2765L25.1087 31.6743ZM25.1456 31.4692H25.4111V31.5131H25.1456V31.4692ZM25.1903 31.0778L25.1526 31.0757C25.1535 31.0525 25.1612 31.0336 25.1756 31.019C25.1901 31.0042 25.2078 30.9968 25.2287 30.9968C25.2393 30.9968 25.2486 30.9986 25.2566 31.0023C25.2647 31.0059 25.2721 31.0102 25.2791 31.0151C25.2863 31.0198 25.2935 31.024 25.3008 31.0279C25.3083 31.0315 25.3167 31.0334 25.3261 31.0334C25.3368 31.0334 25.346 31.0295 25.3538 31.0219C25.3619 31.0142 25.3664 31.0046 25.3674 30.9931L25.4043 30.9973C25.4031 31.0208 25.3951 31.0395 25.3805 31.0535C25.366 31.0674 25.3486 31.0744 25.3282 31.0744C25.3166 31.0744 25.3067 31.0726 25.2987 31.0689C25.2909 31.0651 25.2837 31.0608 25.2773 31.0561C25.271 31.0514 25.2642 31.0472 25.2569 31.0435C25.2498 31.0397 25.241 31.0378 25.2308 31.0378C25.2196 31.0378 25.2102 31.0417 25.2026 31.0496C25.1951 31.0572 25.191 31.0666 25.1903 31.0778ZM26.1516 31.4067C26.1516 31.4625 26.1416 31.511 26.1218 31.5523C26.1019 31.5934 26.0746 31.6253 26.0397 31.6479C26.0051 31.6704 25.9652 31.6816 25.9201 31.6816C25.8749 31.6816 25.835 31.6704 25.8001 31.6479C25.7655 31.6253 25.7382 31.5934 25.7183 31.5523C25.6987 31.511 25.6888 31.4625 25.6888 31.4067C25.6888 31.351 25.6987 31.3026 25.7183 31.2615C25.7382 31.2202 25.7655 31.1883 25.8004 31.1658C25.8352 31.1432 25.8751 31.1319 25.9201 31.1319C25.9652 31.1319 26.0051 31.1432 26.0397 31.1658C26.0746 31.1883 26.1019 31.2202 26.1218 31.2615C26.1416 31.3026 26.1516 31.351 26.1516 31.4067ZM26.104 31.4067C26.104 31.3588 26.096 31.3178 26.08 31.2837C26.0639 31.2494 26.0421 31.2231 26.0144 31.205C25.9867 31.1869 25.9552 31.1779 25.9201 31.1779C25.885 31.1779 25.8537 31.1869 25.826 31.205C25.7983 31.2231 25.7763 31.2493 25.7601 31.2834C25.7441 31.3176 25.7361 31.3587 25.7361 31.4067C25.7361 31.4547 25.7441 31.4957 25.7601 31.5298C25.7762 31.564 25.798 31.5902 25.8257 31.6085C25.8534 31.6266 25.8849 31.6356 25.9201 31.6356C25.9552 31.6356 25.9867 31.6266 26.0144 31.6085C26.0423 31.5904 26.0642 31.5642 26.0802 31.5301C26.0963 31.4958 26.1042 31.4547 26.104 31.4067Z" fill="white"/>
<path d="M41.8885 12.3532C41.8885 11.4019 42.101 10.5522 42.5258 9.80417C42.9599 9.04686 43.5463 8.46041 44.2852 8.04481C45.0332 7.61998 45.869 7.40756 46.7926 7.40756C47.8731 7.40756 48.8198 7.68463 49.6325 8.23875C50.4452 8.79288 51.0132 9.55943 51.3364 10.5384H49.1061C48.8844 10.0766 48.5704 9.73028 48.1641 9.4994C47.7669 9.26851 47.3052 9.15307 46.7787 9.15307C46.2154 9.15307 45.712 9.28698 45.2687 9.55481C44.8347 9.8134 44.493 10.1828 44.2436 10.6631C44.0035 11.1433 43.8834 11.7067 43.8834 12.3532C43.8834 12.9904 44.0035 13.5538 44.2436 14.0432C44.493 14.5235 44.8347 14.8975 45.2687 15.1654C45.712 15.424 46.2154 15.5533 46.7787 15.5533C47.3052 15.5533 47.7669 15.4378 48.1641 15.2069C48.5704 14.9668 48.8844 14.6158 49.1061 14.1541H51.3364C51.0132 15.1423 50.4452 15.9134 49.6325 16.4676C48.829 17.0125 47.8824 17.2849 46.7926 17.2849C45.869 17.2849 45.0332 17.0771 44.2852 16.6615C43.5463 16.2367 42.9599 15.6502 42.5258 14.9021C42.101 14.1541 41.8885 13.3044 41.8885 12.3532ZM56.4009 17.3265C55.662 17.3265 54.9971 17.1648 54.406 16.8416C53.8149 16.5091 53.3485 16.0427 53.0068 15.4424C52.6744 14.8421 52.5081 14.1495 52.5081 13.3644C52.5081 12.5794 52.679 11.8868 53.0207 11.2865C53.3716 10.6862 53.8473 10.2244 54.4476 9.90114C55.0479 9.56866 55.7174 9.40242 56.4563 9.40242C57.1951 9.40242 57.8647 9.56866 58.465 9.90114C59.0653 10.2244 59.5363 10.6862 59.878 11.2865C60.229 11.8868 60.4044 12.5794 60.4044 13.3644C60.4044 14.1495 60.2244 14.8421 59.8642 15.4424C59.5132 16.0427 59.033 16.5091 58.4234 16.8416C57.8231 17.1648 57.1489 17.3265 56.4009 17.3265ZM56.4009 15.6364C56.7518 15.6364 57.0797 15.5532 57.3844 15.387C57.6985 15.2115 57.9478 14.9529 58.1325 14.6112C58.3172 14.2695 58.4096 13.8539 58.4096 13.3644C58.4096 12.6348 58.2156 12.0761 57.8278 11.6882C57.4491 11.2911 56.9827 11.0925 56.4286 11.0925C55.8744 11.0925 55.4081 11.2911 55.0294 11.6882C54.66 12.0761 54.4753 12.6348 54.4753 13.3644C54.4753 14.094 54.6554 14.6574 55.0155 15.0545C55.385 15.4424 55.8467 15.6364 56.4009 15.6364ZM61.3284 13.3367C61.3284 12.561 61.4808 11.8729 61.7855 11.2726C62.0996 10.6723 62.5244 10.2105 63.06 9.88729C63.5957 9.56404 64.1914 9.40242 64.8471 9.40242C65.3458 9.40242 65.8215 9.51325 66.274 9.7349C66.7265 9.94732 67.0867 10.2336 67.3545 10.5938V6.95041H69.3217V17.2018H67.3545V16.0658C67.1144 16.4445 66.7773 16.7492 66.3433 16.9801C65.9092 17.211 65.4059 17.3265 64.8333 17.3265C64.1868 17.3265 63.5957 17.1602 63.06 16.8277C62.5244 16.4953 62.0996 16.0289 61.7855 15.4286C61.4808 14.819 61.3284 14.1218 61.3284 13.3367ZM67.3684 13.3644C67.3684 12.8934 67.276 12.4917 67.0913 12.1592C66.9066 11.8175 66.6573 11.5589 66.3433 11.3834C66.0292 11.1987 65.6922 11.1064 65.332 11.1064C64.9718 11.1064 64.6393 11.1941 64.3345 11.3696C64.0298 11.5451 63.7804 11.8036 63.5865 12.1454C63.4018 12.4778 63.3094 12.875 63.3094 13.3367C63.3094 13.7985 63.4018 14.2049 63.5865 14.5558C63.7804 14.8975 64.0298 15.1607 64.3345 15.3455C64.6485 15.5302 64.981 15.6225 65.332 15.6225C65.6922 15.6225 66.0292 15.5348 66.3433 15.3593C66.6573 15.1746 66.9066 14.916 67.0913 14.5835C67.276 14.2418 67.3684 13.8355 67.3684 13.3644ZM78.3503 13.1982C78.3503 13.4753 78.3318 13.7246 78.2949 13.9463H72.6843C72.7305 14.5004 72.9245 14.9345 73.2662 15.2485C73.6079 15.5625 74.0281 15.7195 74.5268 15.7195C75.2472 15.7195 75.7598 15.4101 76.0645 14.7913H78.1564C77.9347 15.5302 77.5099 16.1397 76.8819 16.6199C76.2539 17.091 75.4827 17.3265 74.5684 17.3265C73.8295 17.3265 73.1646 17.1648 72.5735 16.8416C71.9917 16.5091 71.5345 16.0427 71.2021 15.4424C70.8788 14.8421 70.7172 14.1495 70.7172 13.3644C70.7172 12.5702 70.8788 11.8729 71.2021 11.2726C71.5253 10.6723 71.9778 10.2105 72.5597 9.88729C73.1415 9.56404 73.8111 9.40242 74.5684 9.40242C75.298 9.40242 75.9491 9.55943 76.5217 9.87343C77.1035 10.1874 77.5514 10.6354 77.8654 11.2172C78.1887 11.7898 78.3503 12.4501 78.3503 13.1982ZM76.3416 12.6441C76.3324 12.1454 76.1523 11.7482 75.8013 11.4527C75.4504 11.1479 75.0209 10.9955 74.513 10.9955C74.0327 10.9955 73.6264 11.1433 73.2939 11.4388C72.9706 11.7251 72.7721 12.1269 72.6982 12.6441H76.3416ZM83.1046 17.2988C82.4304 17.2988 81.8208 17.1833 81.2759 16.9524C80.7403 16.7215 80.3154 16.3891 80.0014 15.955C79.6874 15.5209 79.5258 15.0084 79.5166 14.4173H81.5946C81.6223 14.8144 81.7608 15.1284 82.0102 15.3593C82.2687 15.5902 82.6197 15.7056 83.063 15.7056C83.5155 15.7056 83.8711 15.5994 84.1297 15.387C84.3883 15.1654 84.5176 14.8791 84.5176 14.5281C84.5176 14.2418 84.4298 14.0063 84.2544 13.8216C84.0789 13.6369 83.8572 13.4937 83.5894 13.3921C83.3308 13.2813 82.9706 13.1613 82.5089 13.032C81.8809 12.8473 81.3683 12.6672 80.9712 12.4917C80.5833 12.307 80.2462 12.0345 79.9599 11.6744C79.6828 11.3049 79.5443 10.8155 79.5443 10.2059C79.5443 9.63331 79.6874 9.13459 79.9737 8.70976C80.26 8.28493 80.6618 7.96169 81.179 7.74004C81.6961 7.50915 82.2872 7.39371 82.9522 7.39371C83.9496 7.39371 84.7577 7.63845 85.3765 8.12793C86.0045 8.60817 86.3508 9.28236 86.4155 10.1505H84.2821C84.2636 9.81802 84.1205 9.54557 83.8526 9.33316C83.594 9.11151 83.2477 9.00068 82.8136 9.00068C82.435 9.00068 82.1302 9.09765 81.8993 9.2916C81.6777 9.48554 81.5669 9.76723 81.5669 10.1366C81.5669 10.3952 81.65 10.6123 81.8162 10.7877C81.9917 10.954 82.2041 11.0925 82.4535 11.2033C82.7121 11.3049 83.0722 11.425 83.534 11.5635C84.162 11.7482 84.6746 11.9329 85.0717 12.1177C85.4688 12.3024 85.8106 12.5794 86.0969 12.9488C86.3832 13.3183 86.5263 13.8031 86.5263 14.4034C86.5263 14.9206 86.3924 15.4009 86.1246 15.8442C85.8567 16.2875 85.4642 16.643 84.947 16.9109C84.4298 17.1695 83.8157 17.2988 83.1046 17.2988ZM90.4658 11.1202V14.8329C90.4658 15.0915 90.5258 15.2808 90.6459 15.4009C90.7752 15.5117 90.9876 15.5671 91.2832 15.5671H92.1836V17.2018H90.9645C89.3298 17.2018 88.5125 16.4075 88.5125 14.819V11.1202H87.5982V9.5271H88.5125V7.62921H90.4658V9.5271H92.1836V11.1202H90.4658ZM93.0798 13.3367C93.0798 12.561 93.2322 11.8729 93.537 11.2726C93.851 10.6723 94.2712 10.2105 94.7976 9.88729C95.3333 9.56404 95.929 9.40242 96.5847 9.40242C97.1573 9.40242 97.656 9.51787 98.0809 9.74875C98.5149 9.97964 98.8613 10.2706 99.1198 10.6215V9.5271H101.073V17.2018H99.1198V16.0797C98.8705 16.4399 98.5242 16.74 98.0809 16.9801C97.6468 17.211 97.1435 17.3265 96.5709 17.3265C95.9244 17.3265 95.3333 17.1602 94.7976 16.8277C94.2712 16.4953 93.851 16.0289 93.537 15.4286C93.2322 14.819 93.0798 14.1218 93.0798 13.3367ZM99.1198 13.3644C99.1198 12.8934 99.0275 12.4917 98.8428 12.1592C98.6581 11.8175 98.4087 11.5589 98.0947 11.3834C97.7807 11.1987 97.4436 11.1064 97.0834 11.1064C96.7232 11.1064 96.3908 11.1941 96.086 11.3696C95.7812 11.5451 95.5319 11.8036 95.3379 12.1454C95.1532 12.4778 95.0609 12.875 95.0609 13.3367C95.0609 13.7985 95.1532 14.2049 95.3379 14.5558C95.5319 14.8975 95.7812 15.1607 96.086 15.3455C96.4 15.5302 96.7325 15.6225 97.0834 15.6225C97.4436 15.6225 97.7807 15.5348 98.0947 15.3593C98.4087 15.1746 98.6581 14.916 98.8428 14.5835C99.0275 14.2418 99.1198 13.8355 99.1198 13.3644ZM102.469 13.3644C102.469 12.5702 102.63 11.8775 102.954 11.2865C103.277 10.6862 103.725 10.2244 104.297 9.90114C104.87 9.56866 105.526 9.40242 106.264 9.40242C107.216 9.40242 108.001 9.64255 108.619 10.1228C109.247 10.5938 109.668 11.2588 109.88 12.1177H107.788C107.677 11.7852 107.488 11.5266 107.22 11.3419C106.962 11.1479 106.638 11.051 106.251 11.051C105.696 11.051 105.258 11.2541 104.935 11.6605C104.611 12.0576 104.45 12.6256 104.45 13.3644C104.45 14.094 104.611 14.662 104.935 15.0684C105.258 15.4655 105.696 15.6641 106.251 15.6641C107.036 15.6641 107.548 15.3131 107.788 14.6112H109.88C109.668 15.4424 109.247 16.1028 108.619 16.5922C107.991 17.0817 107.206 17.3265 106.264 17.3265C105.526 17.3265 104.87 17.1648 104.297 16.8416C103.725 16.5091 103.277 16.0473 102.954 15.4563C102.63 14.856 102.469 14.1587 102.469 13.3644ZM115.845 17.2018L113.24 13.9324V17.2018H111.301V6.95041H113.24V12.7826L115.817 9.5271H118.338L114.958 13.3783L118.366 17.2018H115.845Z" fill="white"/>
<path d="M47.7983 23.0979C48.6184 23.0979 49.3314 23.253 49.9373 23.5633C50.5431 23.8736 51.0086 24.3095 51.3337 24.8711C51.6588 25.4252 51.8213 26.068 51.8213 26.7994C51.8213 27.3831 51.7253 27.9446 51.5332 28.484C51.3411 29.0159 51.0603 29.4482 50.6909 29.7806C50.3288 30.1131 49.904 30.2794 49.4164 30.2794C49.047 30.2794 48.7625 30.187 48.563 30.0023C48.3635 29.8176 48.249 29.5664 48.2195 29.2487C47.9904 29.5664 47.6986 29.8176 47.3439 30.0023C46.9967 30.187 46.6273 30.2794 46.2357 30.2794C45.6742 30.2794 45.2309 30.1094 44.9058 29.7696C44.5881 29.4223 44.4292 28.9568 44.4292 28.3732C44.4292 27.819 44.5437 27.3018 44.7728 26.8216C45.0092 26.3414 45.3343 25.9572 45.7481 25.669C46.1618 25.3735 46.631 25.2257 47.1555 25.2257C47.8574 25.2257 48.3303 25.4917 48.5741 26.0237L48.696 25.3365H49.5715L49.0174 28.5394C48.9952 28.6798 48.9842 28.8091 48.9842 28.9273C48.9842 29.3706 49.18 29.5922 49.5715 29.5922C49.8671 29.5922 50.122 29.4519 50.3362 29.1711C50.5579 28.8903 50.7241 28.5394 50.835 28.1183C50.9458 27.6897 51.0012 27.2686 51.0012 26.8548C51.0012 25.887 50.7094 25.137 50.1257 24.6051C49.5494 24.0731 48.733 23.8071 47.6764 23.8071C46.7972 23.8071 46.003 24.0214 45.2937 24.4499C44.5918 24.8711 44.0413 25.4511 43.6424 26.1899C43.2434 26.9287 43.0439 27.7451 43.0439 28.6391C43.0365 29.6144 43.3284 30.3643 43.9194 30.8889C44.5105 31.4209 45.3306 31.6868 46.3798 31.6868C47.0743 31.6868 47.6875 31.5612 48.2195 31.31L48.3525 31.9972C47.6949 32.2705 46.9708 32.4072 46.1803 32.4072C45.3897 32.4072 44.6915 32.2558 44.0857 31.9528C43.4872 31.6573 43.0217 31.2288 42.6893 30.6673C42.3642 30.1131 42.2016 29.4666 42.2016 28.7278C42.2016 27.686 42.4418 26.7366 42.922 25.8796C43.4022 25.0151 44.0672 24.3354 44.9169 23.8404C45.7739 23.3454 46.7344 23.0979 47.7983 23.0979ZM46.5349 29.4925C46.8674 29.4925 47.174 29.3964 47.4548 29.2044C47.7355 29.0049 47.9572 28.7389 48.1197 28.4064C48.2823 28.0665 48.3635 27.6971 48.3635 27.2981C48.3635 26.914 48.2564 26.6036 48.0421 26.3672C47.8353 26.1234 47.5397 26.0015 47.1555 26.0015C46.8009 26.0015 46.4869 26.1086 46.2135 26.3229C45.9475 26.5298 45.7407 26.8068 45.5929 27.1541C45.4451 27.4939 45.3712 27.8486 45.3712 28.218C45.3712 28.6096 45.471 28.9199 45.6705 29.1489C45.87 29.378 46.1581 29.4925 46.5349 29.4925ZM53.1035 27.1541C53.1035 26.5261 53.2291 25.9793 53.4803 25.5139C53.7315 25.041 54.0788 24.6753 54.5221 24.4167C54.9728 24.1581 55.4863 24.0288 56.0625 24.0288C56.8088 24.0288 57.422 24.2098 57.9023 24.5718C58.3899 24.9339 58.7113 25.4363 58.8664 26.0791H57.7803C57.6769 25.7096 57.4737 25.4178 57.1708 25.2035C56.8753 24.9893 56.5059 24.8821 56.0625 24.8821C55.4863 24.8821 55.0208 25.0816 54.6661 25.4806C54.3115 25.8722 54.1342 26.43 54.1342 27.1541C54.1342 27.8855 54.3115 28.4507 54.6661 28.8497C55.0208 29.2487 55.4863 29.4482 56.0625 29.4482C56.5059 29.4482 56.8753 29.3447 57.1708 29.1379C57.4663 28.931 57.6695 28.6354 57.7803 28.2512H58.8664C58.7039 28.8719 58.3788 29.3706 57.8912 29.7474C57.4035 30.1168 56.794 30.3015 56.0625 30.3015C55.4863 30.3015 54.9728 30.1722 54.5221 29.9136C54.0788 29.655 53.7315 29.2893 53.4803 28.8165C53.2291 28.3436 53.1035 27.7895 53.1035 27.1541ZM62.8608 30.3015C62.2919 30.3015 61.7747 30.1722 61.3093 29.9136C60.8512 29.655 60.4892 29.2893 60.2232 28.8165C59.9646 28.3362 59.8353 27.7821 59.8353 27.1541C59.8353 26.5335 59.9683 25.9867 60.2343 25.5139C60.5076 25.0336 60.8771 24.6679 61.3425 24.4167C61.808 24.1581 62.3289 24.0288 62.9052 24.0288C63.4815 24.0288 64.0023 24.1581 64.4678 24.4167C64.9333 24.6679 65.299 25.0299 65.565 25.5028C65.8384 25.9756 65.975 26.5261 65.975 27.1541C65.975 27.7821 65.8347 28.3362 65.5539 28.8165C65.2805 29.2893 64.9074 29.655 64.4346 29.9136C63.9617 30.1722 63.4371 30.3015 62.8608 30.3015ZM62.8608 29.4149C63.2229 29.4149 63.5627 29.33 63.8804 29.16C64.1981 28.9901 64.453 28.7352 64.6451 28.3953C64.8446 28.0555 64.9444 27.6417 64.9444 27.1541C64.9444 26.6664 64.8483 26.2527 64.6562 25.9128C64.4641 25.573 64.2129 25.3218 63.9026 25.1592C63.5923 24.9893 63.2561 24.9043 62.8941 24.9043C62.5247 24.9043 62.1848 24.9893 61.8745 25.1592C61.5716 25.3218 61.3278 25.573 61.143 25.9128C60.9583 26.2527 60.866 26.6664 60.866 27.1541C60.866 27.6491 60.9546 28.0665 61.132 28.4064C61.3167 28.7463 61.5605 29.0012 61.8634 29.1711C62.1663 29.3336 62.4988 29.4149 62.8608 29.4149ZM66.9242 27.143C66.9242 26.5224 67.0498 25.9793 67.3011 25.5139C67.5523 25.041 67.8958 24.6753 68.3317 24.4167C68.775 24.1581 69.2701 24.0288 69.8168 24.0288C70.2897 24.0288 70.7293 24.1396 71.1356 24.3613C71.542 24.5755 71.8523 24.86 72.0666 25.2146V22.0007H73.0862V30.2018H72.0666V29.0603C71.8671 29.4223 71.5715 29.7215 71.18 29.958C70.7884 30.187 70.3303 30.3015 69.8057 30.3015C69.2664 30.3015 68.775 30.1685 68.3317 29.9026C67.8958 29.6366 67.5523 29.2635 67.3011 28.7832C67.0498 28.303 66.9242 27.7562 66.9242 27.143ZM72.0666 27.1541C72.0666 26.696 71.9742 26.297 71.7895 25.9572C71.6048 25.6173 71.3536 25.3587 71.0359 25.1814C70.7256 24.9967 70.382 24.9043 70.0052 24.9043C69.6284 24.9043 69.2848 24.993 68.9745 25.1703C68.6642 25.3476 68.4167 25.6062 68.232 25.9461C68.0473 26.2859 67.9549 26.6849 67.9549 27.143C67.9549 27.6085 68.0473 28.0148 68.232 28.3621C68.4167 28.7019 68.6642 28.9642 68.9745 29.1489C69.2848 29.3263 69.6284 29.4149 70.0052 29.4149C70.382 29.4149 70.7256 29.3263 71.0359 29.1489C71.3536 28.9642 71.6048 28.7019 71.7895 28.3621C71.9742 28.0148 72.0666 27.6122 72.0666 27.1541ZM80.3317 26.9324C80.3317 27.1245 80.3206 27.3277 80.2985 27.542H75.4443C75.4813 28.1404 75.6844 28.6096 76.0539 28.9495C76.4307 29.2819 76.8851 29.4482 77.417 29.4482C77.8529 29.4482 78.215 29.3484 78.5031 29.1489C78.7986 28.9421 79.0055 28.6687 79.1237 28.3288H80.2098C80.0473 28.9125 79.7222 29.3891 79.2346 29.7585C78.7469 30.1205 78.1411 30.3015 77.417 30.3015C76.8407 30.3015 76.3235 30.1722 75.8655 29.9136C75.4148 29.655 75.0601 29.2893 74.8015 28.8165C74.5429 28.3362 74.4136 27.7821 74.4136 27.1541C74.4136 26.5261 74.5392 25.9756 74.7904 25.5028C75.0417 25.0299 75.3926 24.6679 75.8433 24.4167C76.3014 24.1581 76.8259 24.0288 77.417 24.0288C77.9933 24.0288 78.5031 24.1544 78.9464 24.4056C79.3897 24.6568 79.7296 25.0041 79.966 25.4474C80.2098 25.8833 80.3317 26.3783 80.3317 26.9324ZM79.29 26.7219C79.29 26.3377 79.205 26.0089 79.0351 25.7355C78.8651 25.4547 78.6324 25.2442 78.3369 25.1038C78.0487 24.956 77.7273 24.8821 77.3727 24.8821C76.8629 24.8821 76.427 25.0447 76.0649 25.3698C75.7103 25.6949 75.5071 26.1456 75.4554 26.7219H79.29ZM83.813 30.3015C83.3475 30.3015 82.93 30.2239 82.5606 30.0688C82.1912 29.9062 81.8994 29.6846 81.6851 29.4038C81.4708 29.1157 81.3526 28.7869 81.3305 28.4175H82.3722C82.4018 28.7204 82.5422 28.9679 82.7934 29.16C83.052 29.3521 83.3881 29.4482 83.8019 29.4482C84.1861 29.4482 84.489 29.3632 84.7106 29.1933C84.9323 29.0233 85.0431 28.8091 85.0431 28.5505C85.0431 28.2845 84.9249 28.0887 84.6885 27.9631C84.452 27.8301 84.0863 27.7008 83.5913 27.5752C83.1406 27.457 82.7712 27.3388 82.483 27.2206C82.2023 27.095 81.9585 26.914 81.7516 26.6775C81.5521 26.4337 81.4524 26.116 81.4524 25.7244C81.4524 25.4141 81.5447 25.1297 81.7294 24.8711C81.9141 24.6125 82.1764 24.4093 82.5163 24.2615C82.8562 24.1064 83.244 24.0288 83.68 24.0288C84.3523 24.0288 84.8954 24.1987 85.3091 24.5386C85.7229 24.8785 85.9445 25.3439 85.9741 25.935H84.9655C84.9434 25.6173 84.8141 25.3624 84.5777 25.1703C84.3486 24.9782 84.0383 24.8821 83.6467 24.8821C83.2847 24.8821 82.9965 24.9597 82.7823 25.1149C82.568 25.27 82.4609 25.4732 82.4609 25.7244C82.4609 25.9239 82.5237 26.0901 82.6493 26.2231C82.7823 26.3487 82.9448 26.4522 83.1369 26.5335C83.3364 26.6073 83.6098 26.6923 83.957 26.7884C84.3929 26.9066 84.7476 27.0248 85.021 27.143C85.2943 27.2538 85.5271 27.4238 85.7192 27.6528C85.9186 27.8818 86.0221 28.1811 86.0295 28.5505C86.0295 28.883 85.9371 29.1822 85.7524 29.4482C85.5677 29.7141 85.3054 29.9247 84.9655 30.0799C84.6331 30.2276 84.2489 30.3015 83.813 30.3015ZM88.6833 24.9597V28.5394C88.6833 28.8349 88.7461 29.0455 88.8717 29.1711C88.9973 29.2893 89.2153 29.3484 89.5256 29.3484H90.2681V30.2018H89.3593C88.7978 30.2018 88.3767 30.0725 88.0959 29.8139C87.8152 29.5553 87.6748 29.1305 87.6748 28.5394V24.9597H86.8879V24.1285H87.6748V22.5991H88.6833V24.1285H90.2681V24.9597H88.6833ZM91.1133 27.143C91.1133 26.5224 91.2389 25.9793 91.4901 25.5139C91.7413 25.041 92.0848 24.6753 92.5207 24.4167C92.964 24.1581 93.4554 24.0288 93.9947 24.0288C94.5267 24.0288 94.9885 24.1433 95.38 24.3724C95.7716 24.6014 96.0635 24.8895 96.2556 25.2368V24.1285H97.2752V30.2018H96.2556V29.0714C96.0561 29.426 95.7568 29.7215 95.3579 29.958C94.9663 30.187 94.5082 30.3015 93.9836 30.3015C93.4443 30.3015 92.9567 30.1685 92.5207 29.9026C92.0848 29.6366 91.7413 29.2635 91.4901 28.7832C91.2389 28.303 91.1133 27.7562 91.1133 27.143ZM96.2556 27.1541C96.2556 26.696 96.1632 26.297 95.9785 25.9572C95.7938 25.6173 95.5426 25.3587 95.2249 25.1814C94.9146 24.9967 94.571 24.9043 94.1942 24.9043C93.8174 24.9043 93.4738 24.993 93.1635 25.1703C92.8532 25.3476 92.6057 25.6062 92.421 25.9461C92.2363 26.2859 92.1439 26.6849 92.1439 27.143C92.1439 27.6085 92.2363 28.0148 92.421 28.3621C92.6057 28.7019 92.8532 28.9642 93.1635 29.1489C93.4738 29.3263 93.8174 29.4149 94.1942 29.4149C94.571 29.4149 94.9146 29.3263 95.2249 29.1489C95.5426 28.9642 95.7938 28.7019 95.9785 28.3621C96.1632 28.0148 96.2556 27.6122 96.2556 27.1541ZM98.6026 27.1541C98.6026 26.5261 98.7282 25.9793 98.9794 25.5139C99.2307 25.041 99.5779 24.6753 100.021 24.4167C100.472 24.1581 100.985 24.0288 101.562 24.0288C102.308 24.0288 102.921 24.2098 103.401 24.5718C103.889 24.9339 104.21 25.4363 104.366 26.0791H103.279C103.176 25.7096 102.973 25.4178 102.67 25.2035C102.374 24.9893 102.005 24.8821 101.562 24.8821C100.985 24.8821 100.52 25.0816 100.165 25.4806C99.8106 25.8722 99.6333 26.43 99.6333 27.1541C99.6333 27.8855 99.8106 28.4507 100.165 28.8497C100.52 29.2487 100.985 29.4482 101.562 29.4482C102.005 29.4482 102.374 29.3447 102.67 29.1379C102.965 28.931 103.169 28.6354 103.279 28.2512H104.366C104.203 28.8719 103.878 29.3706 103.39 29.7474C102.903 30.1168 102.293 30.3015 101.562 30.3015C100.985 30.3015 100.472 30.1722 100.021 29.9136C99.5779 29.655 99.2307 29.2893 98.9794 28.8165C98.7282 28.3436 98.6026 27.7895 98.6026 27.1541ZM109.103 30.2018L106.72 27.5198V30.2018H105.711V22.0007H106.72V26.8216L109.058 24.1285H110.466L107.606 27.1541L110.477 30.2018H109.103ZM114.064 30.3015C113.495 30.3015 112.978 30.1722 112.512 29.9136C112.054 29.655 111.692 29.2893 111.426 28.8165C111.167 28.3362 111.038 27.7821 111.038 27.1541C111.038 26.5335 111.171 25.9867 111.437 25.5139C111.71 25.0336 112.08 24.6679 112.545 24.4167C113.011 24.1581 113.532 24.0288 114.108 24.0288C114.684 24.0288 115.205 24.1581 115.671 24.4167C116.136 24.6679 116.502 25.0299 116.768 25.5028C117.041 25.9756 117.178 26.5261 117.178 27.1541C117.178 27.7821 117.037 28.3362 116.757 28.8165C116.483 29.2893 116.11 29.655 115.637 29.9136C115.164 30.1722 114.64 30.3015 114.064 30.3015ZM114.064 29.4149C114.426 29.4149 114.766 29.33 115.083 29.16C115.401 28.9901 115.656 28.7352 115.848 28.3953C116.047 28.0555 116.147 27.6417 116.147 27.1541C116.147 26.6664 116.051 26.2527 115.859 25.9128C115.667 25.573 115.416 25.3218 115.105 25.1592C114.795 24.9893 114.459 24.9043 114.097 24.9043C113.727 24.9043 113.388 24.9893 113.077 25.1592C112.774 25.3218 112.531 25.573 112.346 25.9128C112.161 26.2527 112.069 26.6664 112.069 27.1541C112.069 27.6491 112.157 28.0665 112.335 28.4064C112.519 28.7463 112.763 29.0012 113.066 29.1711C113.369 29.3336 113.702 29.4149 114.064 29.4149ZM120.975 24.9597H119.701V30.2018H118.692V24.9597H117.905V24.1285H118.692V23.6963C118.692 23.0166 118.866 22.5216 119.213 22.2112C119.568 21.8935 120.133 21.7347 120.909 21.7347V22.577C120.465 22.577 120.151 22.6656 119.967 22.843C119.789 23.0129 119.701 23.2973 119.701 23.6963V24.1285H120.975V24.9597ZM122.672 23.1422C122.48 23.1422 122.317 23.0757 122.184 22.9427C122.051 22.8097 121.985 22.6472 121.985 22.4551C121.985 22.263 122.051 22.1004 122.184 21.9674C122.317 21.8344 122.48 21.7679 122.672 21.7679C122.857 21.7679 123.012 21.8344 123.137 21.9674C123.27 22.1004 123.337 22.263 123.337 22.4551C123.337 22.6472 123.27 22.8097 123.137 22.9427C123.012 23.0757 122.857 23.1422 122.672 23.1422ZM123.16 24.1285V30.2018H122.151V24.1285H123.16ZM124.502 27.1541C124.502 26.5261 124.627 25.9793 124.878 25.5139C125.13 25.041 125.477 24.6753 125.92 24.4167C126.371 24.1581 126.884 24.0288 127.461 24.0288C128.207 24.0288 128.82 24.2098 129.3 24.5718C129.788 24.9339 130.109 25.4363 130.265 26.0791H129.179C129.075 25.7096 128.872 25.4178 128.569 25.2035C128.273 24.9893 127.904 24.8821 127.461 24.8821C126.884 24.8821 126.419 25.0816 126.064 25.4806C125.71 25.8722 125.532 26.43 125.532 27.1541C125.532 27.8855 125.71 28.4507 126.064 28.8497C126.419 29.2487 126.884 29.4482 127.461 29.4482C127.904 29.4482 128.273 29.3447 128.569 29.1379C128.864 28.931 129.068 28.6354 129.179 28.2512H130.265C130.102 28.8719 129.777 29.3706 129.289 29.7474C128.802 30.1168 128.192 30.3015 127.461 30.3015C126.884 30.3015 126.371 30.1722 125.92 29.9136C125.477 29.655 125.13 29.2893 124.878 28.8165C124.627 28.3436 124.502 27.7895 124.502 27.1541ZM132.131 23.1422C131.939 23.1422 131.776 23.0757 131.644 22.9427C131.511 22.8097 131.444 22.6472 131.444 22.4551C131.444 22.263 131.511 22.1004 131.644 21.9674C131.776 21.8344 131.939 21.7679 132.131 21.7679C132.316 21.7679 132.471 21.8344 132.597 21.9674C132.73 22.1004 132.796 22.263 132.796 22.4551C132.796 22.6472 132.73 22.8097 132.597 22.9427C132.471 23.0757 132.316 23.1422 132.131 23.1422ZM132.619 24.1285V30.2018H131.61V24.1285H132.619ZM133.961 27.143C133.961 26.5224 134.086 25.9793 134.338 25.5139C134.589 25.041 134.932 24.6753 135.368 24.4167C135.812 24.1581 136.303 24.0288 136.842 24.0288C137.374 24.0288 137.836 24.1433 138.228 24.3724C138.619 24.6014 138.911 24.8895 139.103 25.2368V24.1285H140.123V30.2018H139.103V29.0714C138.904 29.426 138.604 29.7215 138.205 29.958C137.814 30.187 137.356 30.3015 136.831 30.3015C136.292 30.3015 135.804 30.1685 135.368 29.9026C134.932 29.6366 134.589 29.2635 134.338 28.7832C134.086 28.303 133.961 27.7562 133.961 27.143ZM139.103 27.1541C139.103 26.696 139.011 26.297 138.826 25.9572C138.641 25.6173 138.39 25.3587 138.072 25.1814C137.762 24.9967 137.419 24.9043 137.042 24.9043C136.665 24.9043 136.321 24.993 136.011 25.1703C135.701 25.3476 135.453 25.6062 135.269 25.9461C135.084 26.2859 134.991 26.6849 134.991 27.143C134.991 27.6085 135.084 28.0148 135.269 28.3621C135.453 28.7019 135.701 28.9642 136.011 29.1489C136.321 29.3263 136.665 29.4149 137.042 29.4149C137.419 29.4149 137.762 29.3263 138.072 29.1489C138.39 28.9642 138.641 28.7019 138.826 28.3621C139.011 28.0148 139.103 27.6122 139.103 27.1541ZM142.836 22.0007V30.2018H141.827V22.0007H142.836Z" fill="#848484"/>
<defs>
<linearGradient id="paint0_linear_91_27" x1="18.7018" y1="0" x2="18.7018" y2="37.4037" gradientUnits="userSpaceOnUse">
<stop stop-color="#F9D21B"/>
<stop offset="1" stop-color="#E68719"/>
</linearGradient>
<linearGradient id="paint1_linear_91_27" x1="18.7436" y1="6.19812" x2="18.7436" y2="25.3947" gradientUnits="userSpaceOnUse">
<stop stop-color="#FFE410"/>
<stop offset="1" stop-color="#C83C70"/>
</linearGradient>
</defs>
</svg>
