<svg width="48" height="48" viewBox="0 0 48 48" fill="none" xmlns="http://www.w3.org/2000/svg">
<g clip-path="url(#clip0_85_136)">
<path d="M24 46L8.3 41.7L5 4H43L39.7 41.7L24 46ZM12 38.6L24 41.9L36 38.6L38.6 8H9.4L12 38.6Z" fill="#BABABA"/>
<path d="M14 12.9999H34L32.2 34.2999L23.9 36.9999L15.5 34.8999L14.6 27.6999H19.1V31.2999L23.9 32.1999L28.3 31.2999V25.8999H14.6L14.3 21.3999C14.711 21.0251 15.2439 20.812 15.8 20.7999C22.7 20.7999 28.3 21.3999 28.3 21.3999V17.7999H14.6L14 12.9999Z" fill="#BABABA"/>
</g>
<defs>
<clipPath id="clip0_85_136">
<rect width="48" height="48" fill="white"/>
</clipPath>
</defs>
</svg>
