<svg width="22" height="24" viewBox="0 0 22 24" fill="none" xmlns="http://www.w3.org/2000/svg">
<path d="M15.5834 2H6.41671C3.8854 2 1.83337 4.23858 1.83337 7V17C1.83337 19.7614 3.8854 22 6.41671 22H15.5834C18.1147 22 20.1667 19.7614 20.1667 17V7C20.1667 4.23858 18.1147 2 15.5834 2Z" stroke="white" stroke-linecap="round" stroke-linejoin="round"/>
<path d="M14.6667 11.3701C14.7799 12.2023 14.6495 13.0523 14.2943 13.7991C13.9391 14.5459 13.3771 15.1515 12.6882 15.5297C11.9993 15.908 11.2186 16.0397 10.4572 15.906C9.69576 15.7723 8.99234 15.3801 8.44699 14.7852C7.90165 14.1903 7.54214 13.4229 7.41962 12.5923C7.29709 11.7616 7.41778 10.91 7.76452 10.1584C8.11126 9.40691 8.66639 8.7938 9.35096 8.4063C10.0355 8.0188 10.8147 7.87665 11.5776 8.00006C12.3557 8.12594 13.0762 8.52152 13.6324 9.12836C14.1887 9.73521 14.5513 10.5211 14.6667 11.3701Z" stroke="white" stroke-linecap="round" stroke-linejoin="round"/>
<path d="M16.0416 6.5H16.0516" stroke="white" stroke-linecap="round" stroke-linejoin="round"/>
</svg>
