<svg width="44" height="44" viewBox="0 0 44 44" fill="none" xmlns="http://www.w3.org/2000/svg">
<path d="M3.14288 3.14288H40.8572V40.8572H3.14288V3.14288ZM37.7677 31.8623C37.4927 30.1416 36.3723 28.6959 33.0487 27.3476C31.8922 26.8055 30.6067 26.4283 30.2249 25.5562C30.0819 25.0376 30.0599 24.7547 30.1526 24.4483C30.3883 23.4332 31.5905 23.1283 32.5333 23.4112C33.1462 23.5997 33.7119 24.0712 34.067 24.8255C35.6919 23.7632 35.6919 23.7632 36.8249 23.0576C36.4006 22.3976 36.19 22.1132 35.904 21.8319C34.914 20.724 33.5956 20.1583 31.4506 20.207L30.3427 20.3469C29.2805 20.6062 28.2685 21.1719 27.6556 21.9262C25.8642 23.9549 26.3812 27.4906 28.5497 28.952C30.6947 30.5549 33.8313 30.9069 34.232 32.417C34.6092 34.2556 32.8649 34.8449 31.1426 34.6327C29.8682 34.3499 29.1626 33.7119 28.3847 32.5333L25.509 34.1849C25.839 34.9392 26.2162 35.2676 26.7819 35.9276C29.5162 38.687 36.3519 38.5456 37.5792 34.3499C37.6247 34.2085 37.9563 33.242 37.6955 31.757L37.7677 31.8623ZM23.6516 20.4773H20.119C20.119 23.5227 20.1049 26.5493 20.1049 29.5995C20.1049 31.5355 20.2039 33.3127 19.888 33.8596C19.3695 34.9423 18.0337 34.804 17.4272 34.6139C16.8049 34.3059 16.489 33.8816 16.1229 33.2703C16.0239 33.1053 15.95 32.9623 15.9233 32.9623L13.0555 34.7302C13.5347 35.7202 14.234 36.5719 15.136 37.114C16.4796 37.9155 18.2852 38.1747 20.1756 37.7505C21.406 37.3953 22.4667 36.6646 23.0215 35.5332C23.8229 34.0717 23.6532 32.2803 23.6453 30.2752C23.6642 27.0475 23.6453 23.8182 23.6453 20.5653L23.6516 20.4773Z" fill="#BABABA"/>
</svg>
