<svg width="39" height="44" viewBox="0 0 39 44" fill="none" xmlns="http://www.w3.org/2000/svg">
<path d="M17.4656 19.0272C16.8108 19.407 16.2828 19.9732 15.9483 20.6543C15.6139 21.3354 15.4881 22.1008 15.5868 22.8538C15.6855 23.6067 16.0043 24.3134 16.5028 24.8843C17.0014 25.4553 17.6573 25.8649 18.3877 26.0615C19.118 26.258 19.89 26.2326 20.606 25.9885C21.322 25.7444 21.9498 25.2924 22.4101 24.6899C22.8703 24.0874 23.1424 23.3613 23.1918 22.6035C23.2412 21.8457 23.0658 21.0902 22.6877 20.4325C22.1807 19.5507 21.3457 18.9072 20.3664 18.6437C19.3871 18.3802 18.3436 18.5181 17.4656 19.0272ZM34.6003 23.1932C34.3493 22.9051 34.0845 22.6163 33.8058 22.3266C34.0005 22.1211 34.1888 21.9158 34.3709 21.7107C37.8083 17.8315 39.2591 13.9412 37.9148 11.6024C36.6258 9.35994 32.7915 8.69168 27.9912 9.62914C27.5184 9.72205 27.0482 9.82686 26.5806 9.94356C26.4911 9.63362 26.3959 9.32545 26.295 9.01906C24.6665 4.09014 22.0359 0.884044 19.3473 0.885743C16.7691 0.886925 14.2774 3.88948 12.6878 8.53434C12.5314 8.99257 12.3867 9.45461 12.2538 9.92047C11.9411 9.84343 11.6272 9.77226 11.3119 9.70697C6.2473 8.66255 2.16806 9.35042 0.826403 11.6906C-0.460088 13.9346 0.885334 17.6027 4.09831 21.3056C4.41695 21.672 4.74462 22.0301 5.08131 22.38C4.6844 22.7907 4.30855 23.2011 3.95825 23.6092C0.82315 27.2599 -0.445339 30.8679 0.839076 33.1023C2.16557 35.4103 6.18741 36.1647 11.0826 35.1972C11.4793 35.1182 11.8739 35.0293 12.2662 34.9306C12.4099 35.4345 12.5676 35.934 12.7392 36.4291C14.3217 40.9808 16.7995 43.8867 19.3685 43.8857C22.0217 43.8842 24.6813 40.7621 26.2928 36.0195C26.42 35.6447 26.5405 35.2555 26.6547 34.8547C27.1615 34.9813 27.6715 35.0937 28.1849 35.1918C32.9013 36.0881 36.6456 35.3832 37.9276 33.1472C39.2515 30.8375 37.8866 26.9637 34.6003 23.1932ZM2.41127 12.6072C3.23724 11.1667 6.57094 10.6047 10.9438 11.5064C11.2233 11.5641 11.5075 11.6286 11.7966 11.6999C11.3696 13.5967 11.0684 15.5199 10.8948 17.4568C9.317 18.5717 7.81268 19.788 6.39128 21.0981C6.07811 20.7728 5.7733 20.4396 5.47686 20.0985C2.72392 16.9258 1.63597 13.9594 2.41127 12.6072ZM10.731 24.9225C9.63809 24.0913 8.62241 23.2398 7.70054 22.3834C8.62177 21.5323 9.63809 20.6836 10.7288 19.8547C10.6896 20.6991 10.6702 21.5442 10.6705 22.3899C10.6711 23.2344 10.6912 24.0786 10.731 24.9225ZM10.7297 33.3948C8.87436 33.8092 6.95895 33.877 5.07916 33.5951C4.56385 33.5548 4.06224 33.4087 3.60534 33.166C3.14843 32.9233 2.74592 32.5891 2.4227 32.184C1.64338 30.8281 2.66193 27.9313 5.34314 24.809C5.68023 24.4177 6.02836 24.0366 6.38755 23.6658C7.80917 24.9827 9.31594 26.2038 10.898 27.3209C11.074 29.2826 11.3787 31.2304 11.8104 33.1517C11.4522 33.2417 11.092 33.3227 10.7297 33.3948ZM25.9302 16.1102C25.2123 15.6559 24.4855 15.2161 23.7498 14.7909C23.0259 14.3724 22.2932 13.9695 21.5519 13.5824C22.8212 13.0464 24.069 12.5885 25.2736 12.2155C25.5576 13.5018 25.7767 14.8017 25.9302 16.1102ZM14.4174 9.13142C15.7793 5.15148 17.7944 2.7233 19.3483 2.72263C21.0031 2.72184 23.1532 5.34188 24.5592 9.59752C24.6505 9.87494 24.7368 10.1539 24.8182 10.4345C22.9711 11.0099 21.1639 11.7074 19.4086 12.5225C17.6605 11.6978 15.859 10.9925 14.0164 10.4114C14.1396 9.98149 14.2733 9.55484 14.4174 9.13142ZM13.5604 12.1926C14.8169 12.5899 16.0526 13.0505 17.2629 13.5729C15.7633 14.3502 14.3024 15.1968 12.8803 16.1129C13.0521 14.7412 13.2807 13.4269 13.5604 12.1926ZM12.8835 28.663C13.5926 29.119 14.3122 29.5581 15.0421 29.9803C15.7866 30.4109 16.5411 30.8234 17.3055 31.2178C16.0859 31.7582 14.8396 32.2353 13.5713 32.6474C13.2885 31.3959 13.0574 30.0586 12.8835 28.663ZM24.5618 35.4258C23.9923 37.2471 23.094 38.9476 21.9116 40.4423C21.6194 40.8704 21.2428 41.234 20.8052 41.5102C20.3677 41.7864 19.8784 41.9696 19.3676 42.0484C17.8088 42.0494 15.8192 39.7157 14.4658 35.8232C14.3064 35.363 14.1598 34.8986 14.0259 34.4301C15.8773 33.8301 17.6861 33.1049 19.4398 32.2592C21.2096 33.0796 23.0311 33.7824 24.8926 34.363C24.791 34.7198 24.6807 35.0741 24.5618 35.4258ZM25.3372 32.5787C24.1188 32.2003 22.8529 31.7348 21.5652 31.1909C22.2911 30.8072 23.0223 30.402 23.7587 29.9752C24.5144 29.5369 25.2508 29.0877 25.968 28.6274C25.8252 29.9545 25.6146 31.2733 25.3372 32.5787ZM26.2925 22.382C26.2941 23.6877 26.2535 24.9923 26.1708 26.2959C25.1162 27.0128 24.0028 27.7128 22.8443 28.3845C21.6907 29.0535 20.5476 29.6683 19.4264 30.2247C18.2464 29.6567 17.0893 29.0447 15.9548 28.3886C14.8268 27.7364 13.7246 27.042 12.6483 26.3052C12.5499 25.002 12.5004 23.6965 12.4996 22.3886C12.4987 21.0816 12.5475 19.7763 12.6453 18.472C13.6997 17.7488 14.805 17.0494 15.9478 16.3867C17.0958 15.7209 18.2532 15.1087 19.4042 14.5539C20.5696 15.1228 21.7139 15.7324 22.8373 16.3828C23.9645 17.0335 25.0698 17.7206 26.153 18.4439C26.2461 19.7546 26.2925 21.0673 26.2925 22.382ZM28.3405 11.4325C32.4533 10.629 35.5543 11.1695 36.3311 12.5208C37.1586 13.9605 35.9726 17.1401 33.005 20.4895C32.841 20.6742 32.6708 20.8599 32.4945 21.0463C31.0485 19.7334 29.5152 18.521 27.9052 17.4174C27.7427 15.5016 27.4528 13.599 27.0373 11.7222C27.4801 11.6127 27.9145 11.5162 28.3405 11.4325ZM28.0625 19.7845C29.1485 20.5809 30.1926 21.4333 31.1906 22.3384C30.197 23.2583 29.1562 24.1254 28.0724 24.9362C28.1056 24.085 28.1219 23.2333 28.1214 22.3811C28.121 21.5154 28.1014 20.6499 28.0625 19.7845ZM36.3425 32.2303C35.5644 33.5873 32.5582 34.1532 28.5246 33.3867C28.0623 33.299 27.588 33.1947 27.1017 33.0737C27.5071 31.1727 27.7842 29.2464 27.931 27.3079C29.5384 26.1851 31.0668 24.9524 32.5056 23.6188C32.7574 23.8815 32.9969 24.143 33.2241 24.4033C34.5107 25.8084 35.5288 27.4393 36.2275 29.2146C36.4509 29.6827 36.5764 30.1918 36.5962 30.7105C36.616 31.2292 36.5296 31.7465 36.3425 32.2303Z" fill="#BABABA"/>
</svg>
