<svg width="48" height="48" viewBox="0 0 48 48" fill="none" xmlns="http://www.w3.org/2000/svg">
<g clip-path="url(#clip0_85_178)">
<path d="M6 6H42V42H6V6ZM27.42 35.72C28.0072 36.8309 28.9028 37.7485 29.9992 38.3623C31.0956 38.9762 32.346 39.2601 33.6 39.18C36.8 39.18 39.2 37.52 39.2 34.46C39.2 31.4 37.58 30.46 34.7 29.14L33.86 28.78C32.4 28.16 31.86 27.74 31.86 26.78C31.8619 26.575 31.9063 26.3726 31.9905 26.1856C32.0747 25.9986 32.1968 25.8312 32.3491 25.694C32.5014 25.5567 32.6806 25.4526 32.8753 25.3882C33.07 25.3238 33.2759 25.3006 33.48 25.32C33.9483 25.3149 34.4071 25.4516 34.7962 25.7122C35.1853 25.9728 35.4864 26.3451 35.66 26.78L38.28 25.04C37.8264 24.1769 37.1304 23.4652 36.2775 22.9926C35.4247 22.52 34.4523 22.3071 33.48 22.38C32.8555 22.3189 32.2252 22.3885 31.6291 22.5843C31.033 22.7801 30.4842 23.0979 30.0176 23.5175C29.551 23.937 29.1769 24.4491 28.9191 25.0211C28.6613 25.5931 28.5253 26.2126 28.52 26.84C28.52 29.6 30.14 30.84 32.52 31.94L33.36 32.3C34.92 32.98 35.84 33.4 35.84 34.56C35.84 35.72 34.94 36.22 33.54 36.22C32.8515 36.2346 32.1729 36.0547 31.582 35.7009C30.9912 35.3471 30.5122 34.8338 30.2 34.22L27.44 35.82M26 22.5H16V25.5H19V40H22.5V25.5H26V22.5Z" fill="#BABABA"/>
</g>
<defs>
<clipPath id="clip0_85_178">
<rect width="48" height="48" fill="white"/>
</clipPath>
</defs>
</svg>
