<svg width="16" height="17" viewBox="0 0 16 17" fill="none" xmlns="http://www.w3.org/2000/svg">
<path d="M11.0667 10.0352C10.9334 9.9685 10.0667 9.5685 9.93337 9.50183C9.80004 9.43517 9.66671 9.43517 9.53337 9.5685C9.40004 9.70183 9.13337 10.1018 9.00004 10.2352C8.93337 10.3685 8.80004 10.3685 8.66671 10.3018C8.20004 10.1018 7.73337 9.83517 7.33337 9.50183C7.00004 9.1685 6.66671 8.7685 6.40004 8.3685C6.33337 8.23517 6.40004 8.10183 6.46671 8.03517C6.53337 7.9685 6.60004 7.83517 6.73337 7.7685C6.80004 7.70183 6.86671 7.5685 6.86671 7.50183C6.93337 7.43517 6.93337 7.30183 6.86671 7.23517C6.80004 7.1685 6.46671 6.3685 6.33337 6.03517C6.26671 5.5685 6.13337 5.5685 6.00004 5.5685C5.93337 5.5685 5.80004 5.5685 5.66671 5.5685C5.53337 5.5685 5.33337 5.70183 5.26671 5.7685C4.86671 6.1685 4.66671 6.63517 4.66671 7.1685C4.73337 7.7685 4.93337 8.3685 5.33337 8.90183C6.06671 9.9685 7.00004 10.8352 8.13337 11.3685C8.46671 11.5018 8.73337 11.6352 9.06671 11.7018C9.40004 11.8352 9.73337 11.8352 10.1334 11.7685C10.6 11.7018 11 11.3685 11.2667 10.9685C11.4 10.7018 11.4 10.4352 11.3334 10.1685C11.3334 10.1685 11.2 10.1018 11.0667 10.0352ZM12.7334 3.9685C10.1334 1.3685 5.93337 1.3685 3.33337 3.9685C1.20004 6.10183 0.800041 9.3685 2.26671 11.9685L1.33337 15.3685L4.86671 14.4352C5.86671 14.9685 6.93337 15.2352 8.00004 15.2352C11.6667 15.2352 14.6 12.3018 14.6 8.63517C14.6667 6.90183 13.9334 5.23517 12.7334 3.9685ZM10.9334 13.3018C10.0667 13.8352 9.06671 14.1685 8.00004 14.1685C7.00004 14.1685 6.06671 13.9018 5.20004 13.4352L5.00004 13.3018L2.93337 13.8352L3.46671 11.8352L3.33337 11.6352C1.73337 8.9685 2.53337 5.63517 5.13337 3.9685C7.73337 2.30183 11.0667 3.1685 12.6667 5.70183C14.2667 8.30183 13.5334 11.7018 10.9334 13.3018Z" fill="white"/>
</svg>
