<svg width="38" height="38" viewBox="0 0 38 38" fill="none" xmlns="http://www.w3.org/2000/svg">
<path d="M37.3424 18.7018C37.3424 28.9967 28.9967 37.3424 18.7018 37.3424C8.40696 37.3424 0.0613175 28.9967 0.0613175 18.7018C0.0613175 8.40696 8.40696 0.0613175 18.7018 0.0613175C28.9967 0.0613175 37.3424 8.40696 37.3424 18.7018Z" fill="#231F20" stroke="url(#paint0_linear_90_2)" stroke-width="0.122635"/>
<path d="M21.5531 10.2531L21.0217 11.1831L26.6016 9.58886L25.5388 7.59602L21.5531 10.2531Z" fill="#F48A20" stroke="black" stroke-width="0.197903"/>
<path d="M15.2008 10.12L15.7069 11.05L10.3926 9.45574L11.7212 7.4629L15.2008 10.12Z" fill="#F48A20" stroke="black" stroke-width="0.197903"/>
<path d="M26.4665 9.72166L21.2851 11.0502L25.0051 11.8474L26.4665 9.72166Z" fill="#F5C522" stroke="black" stroke-width="0.197903"/>
<path d="M23.2805 28.055L21.1548 29.5165L21.4205 23.6708L23.2805 28.055Z" fill="#0F78DF" stroke="black" stroke-width="0.197903"/>
<path d="M13.8463 27.7896L16.1048 29.1181L15.5734 23.8039L13.8463 27.7896Z" fill="#0F78DF" stroke="black" stroke-width="0.197903"/>
<path d="M28.0608 11.49L28.5923 15.6664M9.06241 11.49L8.39813 15.6664" stroke="black" stroke-width="0.197903"/>
<path d="M18.5887 6L20.3535 7.10264L25.2642 7.51612L21.5812 10.2038L21.0177 11.0308L22.8088 11.3753L24.9573 11.7888L26.6453 9.65248L28.0265 11.4443L25.9548 13.5531L28.5636 15.7859L29.024 21.0923L28.8982 20.9545L25.5711 26.192L23.346 28.1216L21.351 23.6422L21.1208 29.4999L18.4352 31.7741L16.0566 29.1553L15.673 23.5171L13.7547 27.9149L11.4528 26.0542L8 20.9545L8.30692 15.7859L10.9157 13.4209L9.07422 11.4443L10.3019 9.44573L15.7748 11.0308L16.0259 11.1035L15.4428 10.2038L11.9132 7.37829L16.908 7.11683L16.9007 7.10264L18.5887 6Z" fill="url(#paint1_linear_90_2)"/>
<path d="M20.3535 7.10264L18.5887 6L16.9007 7.10264L16.908 7.11683M20.3535 7.10264L18.512 10.2038M20.3535 7.10264L25.2642 7.51612L21.5812 10.2038L21.0177 11.0308M18.512 10.2038L18.4352 14.8211M18.512 10.2038L16.908 7.11683M18.4352 14.8211L16.1334 16.1305M18.4352 14.8211V19.9208M18.4352 14.8211L20.8139 16.1305M18.4352 14.8211L21.0177 11.0308M18.4352 14.8211L16.0259 11.1035M16.908 7.11683L11.9132 7.37829L15.4428 10.2038L16.0259 11.1035M18.4352 19.9208L16.1334 19.9897M18.4352 19.9208H20.8139M16.1334 19.9897V16.1305M16.1334 19.9897L18.512 21.9193M16.1334 16.1305L13.7547 21.0923M16.1334 16.1305L15.2893 15.1657L13.9082 15.0278L14.522 15.8548L16.1334 16.1305ZM20.8139 16.1305V19.9208M20.8139 16.1305L23.2692 21.0234M20.8139 16.1305L21.4185 15.1657L23.1456 15.0278L22.4813 15.8548L20.8139 16.1305ZM20.8139 19.9208L18.512 21.9193M18.512 21.9193V22.7463M18.512 22.7463L21.351 23.6422M18.512 22.7463L15.8264 23.7111M21.351 23.6422L19.6629 25.5718H18.4352M21.351 23.6422L22.9623 21.4424M21.351 23.6422L23.346 28.1216L25.5711 26.192M21.351 23.6422L21.1208 29.4999L18.4352 31.7741M15.8264 23.7111L17.2076 25.5718H18.4352M15.8264 23.7111L15.673 23.5171M23.2692 21.0234L25.1875 16.8885M23.2692 21.0234L22.9623 21.4424M13.7547 21.0923L11.7598 16.8885M13.7547 21.0923L13.9684 21.3624M24.5736 14.9589L22.8088 11.3753M24.5736 14.9589L25.1875 16.8885M24.5736 14.9589L25.9548 13.5531M22.8088 11.3753L21.0177 11.0308M22.8088 11.3753L24.9573 11.7888L26.6453 9.65248L28.0265 11.4443L25.9548 13.5531M25.1875 16.8885L28.5636 15.7859M25.1875 16.8885L28.8982 20.9545M28.5636 15.7859L25.9548 13.5531M28.5636 15.7859L29.024 21.0923L28.8982 20.9545M25.5711 26.192L22.9623 21.4424M25.5711 26.192L28.8982 20.9545M16.0259 11.1035L15.7748 11.0308M10.3019 9.44574L9.07422 11.4443L10.9157 13.4209M10.3019 9.44574L15.7748 11.0308M10.3019 9.44574L11.9899 11.7888L14.2151 11.3753M12.2201 14.8211L14.2151 11.3753M12.2201 14.8211L11.7598 16.8885M12.2201 14.8211L10.9157 13.4209M14.2151 11.3753L15.7748 11.0308M11.7598 16.8885L8.30692 15.7859M11.7598 16.8885L8 20.9545M10.9157 13.4209L8.30692 15.7859M8.30692 15.7859L8 20.9545M8 20.9545L11.4528 26.0542M11.4528 26.0542L13.9684 21.3624M11.4528 26.0542L13.7547 27.9149L15.673 23.5171M13.9684 21.3624L15.673 23.5171M15.673 23.5171L16.0566 29.1553L18.4352 31.7741M18.4352 31.7741V25.5718" stroke="black" stroke-width="0.197903"/>
<path d="M15.1735 15.1679L13.9778 15.0351L14.5092 15.8322L15.9706 15.9651L15.1735 15.1679Z" fill="black" stroke="black" stroke-width="0.197903"/>
<path d="M21.5511 15.301L22.8797 15.1682L22.3483 15.8856L21.0197 16.0982L21.5511 15.301Z" fill="black" stroke="black" stroke-width="0.197903"/>
<path d="M26.5448 9.72026L21.0203 11.0986" stroke="black" stroke-width="0.197903"/>
<path d="M10.2603 9.46081L11.7218 7.31297M26.7345 9.69946L25.406 7.46182" stroke="black" stroke-width="0.197903"/>
<path d="M23.2789 28.1944L21.1532 29.5069M13.8461 27.9557L16.1046 29.149" stroke="black" stroke-width="0.197903"/>
<path d="M28.5932 15.6996L28.0617 11.5811L26.0689 13.5739L28.5932 15.6996Z" fill="#CF5065" stroke="black" stroke-width="0.0593709"/>
<path d="M8.39999 15.6996L9.0363 11.5811L10.7914 13.4411L8.39999 15.6996Z" fill="#CF5065" stroke="black" stroke-width="0.0593709"/>
<path d="M18.4957 22.7404L16.1043 23.6704L15.8386 23.8032L17.1671 25.5304H19.6914L21.2857 23.6704L18.4957 22.7404Z" fill="#F6C721" stroke="black" stroke-width="0.0593709"/>
<path d="M23.1467 21.0134L20.8881 16.3634V19.9506L18.4967 21.9434V22.6077L21.2867 23.5377L23.1467 21.0134Z" fill="#F6C721" stroke="black" stroke-width="0.0593709"/>
<path d="M13.8465 21.0153L16.0405 16.6311V19.9525L18.3636 21.9453V22.6096L15.8393 23.5396L13.8465 21.0153Z" fill="#F6C721" stroke="black" stroke-width="0.0593709"/>
<defs>
<linearGradient id="paint0_linear_90_2" x1="18.7018" y1="0" x2="18.7018" y2="37.4037" gradientUnits="userSpaceOnUse">
<stop stop-color="#F9D21B"/>
<stop offset="1" stop-color="#E68719"/>
</linearGradient>
<linearGradient id="paint1_linear_90_2" x1="18.512" y1="6" x2="18.512" y2="31.7741" gradientUnits="userSpaceOnUse">
<stop stop-color="#FFE410"/>
<stop offset="1" stop-color="#C83C70"/>
</linearGradient>
</defs>
</svg>
